<?xml version="1.0" encoding="utf-8"?>
<!-- Generator: Adobe Illustrator 22.1.0, SVG Export Plug-In . SVG Version: 6.00 Build 0)  -->
<svg version="1.1" id="Layer_1" xmlns="http://www.w3.org/2000/svg" xmlns:xlink="http://www.w3.org/1999/xlink" x="0px" y="0px"
	 viewBox="0 0 515.9 637.8" style="enable-background:new 0 0 515.9 637.8;" xml:space="preserve">
<style type="text/css">
	.st0{fill:#163941;}
	.st1{fill:#9AC3CD;}
</style>
<g>
	<g>
		<path class="st0" d="M258,488c-66.4,0-129-9-176-25.5C30.2,444.4,2.8,420,2.8,391.8V159.9c0-6.3,5-11.3,11.3-11.3
			s11.3,5,11.3,11.3c0,34.8,95.6,73.7,232.5,73.7s232.5-38.9,232.5-73.7c0-6.3,5-11.3,11.3-11.3s11.3,5,11.3,11.3v231.8
			c0,28.2-27.3,52.7-79.1,70.7C386.8,479,324.4,488,258,488z M25.4,201.5v190.3c0,34.8,95.6,73.7,232.5,73.7s232.5-38.9,232.5-73.7
			V201.5c-13.3,11.1-32.1,21-56.3,29.4c-47.2,16.5-109.8,25.5-176,25.5c-66.4,0-129-9-176-25.5C57.5,222.3,38.5,212.4,25.4,201.5z"
			/>
	</g>
	<g>
		<path class="st0" d="M258,371.2c-66.4,0-129-9-176-25.5c-51.7-18.1-79.1-42.5-79.1-70.7V160.2c0-6.3,5-11.3,11.3-11.3
			s11.3,5,11.3,11.3c0,34.8,95.6,73.7,232.5,73.7s232.5-38.9,232.5-73.7c0-6.3,5-11.3,11.3-11.3l0,0c6.3,0,11.3,5,11.3,11.3v114.8
			c0,28.2-27.3,52.7-79.1,70.7C386.8,362.2,324.4,371.2,258,371.2z M25.4,201.5v73.4c0,34.8,95.6,73.7,232.5,73.7
			s232.5-38.9,232.5-73.7v-73.4c-13.3,11.1-32.1,21-56.3,29.4c-47.2,16.5-109.8,25.5-176,25.5c-66.4,0-129-9-176-25.5
			C57.5,222.3,38.5,212.4,25.4,201.5z"/>
	</g>
	<g>
		<path class="st0" d="M258,256.4c-66.4,0-129-9-176-25.5c-51.7-18.1-79.1-42.5-79.1-70.7s27.3-52.7,79.1-70.7
			c47.2-16.5,109.8-25.5,176-25.5c66.4,0,129,9,176,25.5c51.7,18.1,79.1,42.5,79.1,70.7s-27.3,52.7-79.1,70.7
			C386.8,247.2,324.4,256.4,258,256.4z M258,86.3c-136.9,0-232.5,38.9-232.5,73.7S121,233.6,258,233.6s232.5-38.9,232.5-73.7
			S394.9,86.3,258,86.3z"/>
	</g>
	<g>
		<path class="st1" d="M173.2,416.6c-28.2,10.8-48.1,38.4-48.1,70.3c0,41.6,33.7,75.5,75.5,75.5c41.6,0,225.7,0,225.7,0
			c41.6,0,75.5-33.7,75.5-75.5c0-32.3-20.3-59.9-48.8-70.7c2.5-8.4,3.8-17.2,3.8-26.2c0-50.2-40.7-90.6-90.6-90.6
			c-39.3,0-72.8,24.9-85.2,59.9c-11.1-15.8-29.4-26-50.2-26c-33.9,0-61.5,27.6-61.5,61.5C169.1,402.4,170.7,409.8,173.2,416.6z"/>
		<path class="st0" d="M426.3,573.9H200.6c-47.9,0-86.8-38.9-86.8-86.8c0-32.1,18.1-61.7,45.9-76.6c-1.1-5.2-1.8-10.4-1.8-15.8
			c0-40,32.5-72.8,72.8-72.8c17.4,0,34.1,6.3,47,17.4c18.1-31.2,51.5-51.1,88.4-51.1c56.3,0,101.9,45.6,101.9,101.9
			c0,6.8-0.7,13.3-2,19.9c28.5,14.7,47,44.5,47,77.1C513.1,535,474.4,573.9,426.3,573.9z M230.6,344.5c-27.6,0-50.2,22.4-50.2,50.2
			c0,6.1,1.1,12.2,3.4,17.9c2.3,5.9-0.7,12.4-6.6,14.7c-24.4,9.5-40.9,33.4-40.9,59.9c0,35.3,28.7,64.2,64.2,64.2h225.7
			c35.3,0,64.2-28.7,64.2-64.2c0-26.7-16.7-50.6-41.6-60.1c-5.6-2-8.6-8.1-6.8-13.8c2.3-7.5,3.4-15.1,3.4-23
			c0-43.8-35.7-79.3-79.3-79.3c-33.2,0-63.3,21-74.6,52.4c-1.4,4.1-5,6.8-9,7.5c-4.3,0.5-8.4-1.4-10.8-4.7
			C262.2,352.7,246.9,344.5,230.6,344.5z"/>
	</g>
	<circle class="st0" cx="74.9" cy="272.9" r="24.4"/>
	<circle class="st0" cx="74.9" cy="384.3" r="24.4"/>
</g>
</svg>
