<?xml version="1.0" encoding="utf-8"?>
<!-- Generator: Adobe Illustrator 22.1.0, SVG Export Plug-In . SVG Version: 6.00 Build 0)  -->
<svg version="1.1" id="Layer_1" xmlns="http://www.w3.org/2000/svg" xmlns:xlink="http://www.w3.org/1999/xlink" x="0px" y="0px"
	 viewBox="0 0 515.9 413.9" style="enable-background:new 0 0 515.9 413.9;" xml:space="preserve">
<style type="text/css">
	.st0{display:none;}
	.st1{fill:#163941;}
</style>
<g id="Layer_2_1_" class="st0">
</g>
<g>
	<path class="st1" d="M456.4,4.4H59.5C27.8,4.4,2,30.2,2,61.9v290c0,31.7,25.8,57.5,57.5,57.5h396.9c31.7,0,57.5-25.8,57.5-57.5
		v-290C513.9,30.2,488.1,4.4,456.4,4.4z M483.9,351.9c0,15.2-12.3,27.5-27.5,27.5H59.5c-15.2,0-27.5-12.3-27.5-27.5v-290
		c0-15.2,12.3-27.5,27.5-27.5h396.9c15.2,0,27.5,12.3,27.5,27.5V351.9z"/>
	<path class="st1" d="M151.7,222.7c31.7,0,57.5-25.8,57.5-57.5v-2.9c0-31.7-25.8-57.5-57.5-57.5s-57.5,25.8-57.5,57.5v2.9
		C94.1,196.9,119.9,222.7,151.7,222.7z M124.1,162.3c0-15.2,12.3-27.5,27.5-27.5s27.5,12.3,27.5,27.5v2.9
		c0,15.2-12.3,27.5-27.5,27.5s-27.5-12.3-27.5-27.5V162.3z"/>
	<path class="st1" d="M406.8,104.8H262.2c-8.3,0-15,6.7-15,15s6.7,15,15,15h144.6c8.3,0,15-6.7,15-15S415.1,104.8,406.8,104.8z"/>
	<path class="st1" d="M406.8,192.7H262.2c-8.3,0-15,6.7-15,15s6.7,15,15,15h144.6c8.3,0,15-6.7,15-15S415.1,192.7,406.8,192.7z"/>
	<path class="st1" d="M406.8,279.1H109.1c-8.3,0-15,6.7-15,15s6.7,15,15,15h297.6c8.3,0,15-6.7,15-15S415.1,279.1,406.8,279.1z"/>
</g>
</svg>
