<?xml version="1.0" encoding="utf-8"?>
<!-- Generator: Adobe Illustrator 22.1.0, SVG Export Plug-In . SVG Version: 6.00 Build 0)  -->
<svg version="1.1" id="Layer_1" xmlns="http://www.w3.org/2000/svg" xmlns:xlink="http://www.w3.org/1999/xlink" x="0px" y="0px"
	 viewBox="0 0 515.9 413.9" style="enable-background:new 0 0 515.9 413.9;" xml:space="preserve">
<style type="text/css">
	.st0{fill:#163941;}
</style>
<g>
	<path class="st0" d="M456.4,53.4H258.7l-30.5-31.5c-10.8-11.1-25.8-17.5-41.3-17.5H59.5C27.8,4.4,2,30.2,2,61.9v5.9
		c0,0.1,0,0.2,0,0.3c0,0.1,0,0.2,0,0.3v283.5c0,31.7,25.8,57.5,57.5,57.5h396.9c31.7,0,57.5-25.8,57.5-57.5v-241
		C513.9,79.2,488.1,53.4,456.4,53.4z M59.5,34.4h127.4c7.4,0,14.6,3.1,19.8,8.4l9.7,10H33.5C37.3,42.1,47.5,34.4,59.5,34.4z
		 M483.9,351.9c0,15.2-12.3,27.5-27.5,27.5H59.5c-15.2,0-27.5-12.3-27.5-27.5V83.4h424.4c15.2,0,27.5,12.3,27.5,27.5V351.9z"/>
	<path class="st0" d="M416.4,153.2H104.6c-8.3,0-15,6.7-15,15s6.7,15,15,15h311.8c8.3,0,15-6.7,15-15S424.7,153.2,416.4,153.2z"/>
	<path class="st0" d="M274.7,280.2H104.6c-8.3,0-15,6.7-15,15s6.7,15,15,15h170.1c8.3,0,15-6.7,15-15S283,280.2,274.7,280.2z"/>
	<path class="st0" d="M331.4,216.7H104.6c-8.3,0-15,6.7-15,15s6.7,15,15,15h226.8c8.3,0,15-6.7,15-15S339.7,216.7,331.4,216.7z"/>
</g>
</svg>
