<?xml version="1.0" standalone="no"?>
<!DOCTYPE svg PUBLIC "-//W3C//DTD SVG 20010904//EN"
 "http://www.w3.org/TR/2001/REC-SVG-20010904/DTD/svg10.dtd">
<svg version="1.0" xmlns="http://www.w3.org/2000/svg"
 width="300.000000pt" height="217.000000pt" viewBox="0 0 300.000000 217.000000"
 preserveAspectRatio="xMidYMid meet">
<metadata>
Created by potrace 1.10, written by Peter Selinger 2001-2011
</metadata>
<g transform="translate(0.000000,217.000000) scale(0.100000,-0.100000)"
fill="#000000" stroke="none">
<path d="M660 2151 c0 -10 43 -63 96 -117 52 -55 134 -146 182 -204 47 -58
111 -130 141 -160 45 -44 66 -77 106 -165 27 -60 64 -132 82 -160 33 -50 38
-69 27 -99 -5 -13 -10 -13 -27 -4 -37 20 -118 101 -214 216 -71 84 -100 112
-118 112 -17 0 -30 11 -47 42 -20 37 -29 43 -66 50 -24 4 -88 28 -142 53 -84
38 -109 45 -162 45 -39 0 -78 7 -103 19 -22 10 -58 21 -80 25 -22 4 -78 23
-124 43 -89 36 -190 50 -198 26 -8 -22 146 -82 335 -129 102 -26 205 -57 228
-69 23 -12 83 -32 133 -45 50 -12 91 -26 91 -31 0 -4 20 -20 45 -35 25 -14 45
-29 45 -34 0 -17 81 -104 178 -191 57 -50 101 -93 98 -96 -2 -2 -44 27 -93 66
-113 89 -180 121 -254 121 -158 0 -298 -94 -372 -252 -18 -37 -38 -68 -46 -70
-24 -5 -22 -53 2 -64 14 -6 26 -26 36 -59 21 -78 120 -182 213 -226 64 -30 83
-34 153 -34 70 0 89 4 146 32 39 20 90 57 126 93 62 61 96 80 68 37 -8 -13
-66 -71 -128 -129 -63 -59 -119 -120 -126 -135 -6 -16 -24 -34 -39 -41 -15 -6
-41 -21 -57 -32 -17 -10 -62 -26 -100 -34 -39 -8 -95 -26 -126 -40 -59 -28
-117 -43 -292 -76 -60 -11 -131 -32 -158 -45 -26 -14 -55 -25 -63 -25 -7 0
-24 -9 -37 -19 -18 -15 -21 -22 -12 -31 13 -14 106 6 212 46 35 13 74 24 86
24 12 0 53 11 89 25 46 17 86 25 132 25 49 0 73 5 93 19 39 28 117 57 188 71
48 10 64 17 74 38 8 14 28 31 45 38 19 8 74 63 138 138 93 108 160 174 203
200 9 5 13 -2 13 -27 0 -23 -13 -55 -42 -98 -23 -35 -54 -97 -69 -137 -23 -62
-41 -88 -126 -178 -54 -59 -154 -168 -222 -243 -69 -75 -135 -142 -148 -149
-29 -16 -44 -44 -33 -62 6 -10 19 -4 57 27 53 45 148 143 238 245 32 38 66 68
75 68 9 0 46 39 82 88 36 48 78 98 92 111 15 14 26 35 26 50 0 18 9 31 28 42
21 12 33 34 56 105 16 49 41 113 55 142 l27 53 35 -50 c46 -66 215 -238 242
-247 12 -4 36 -18 52 -32 17 -14 71 -44 120 -67 50 -23 122 -62 160 -87 39
-25 93 -50 120 -57 28 -7 91 -34 140 -61 173 -93 286 -129 273 -87 -5 13 -6
13 -198 106 -69 33 -156 81 -195 106 -38 26 -106 62 -150 80 -88 36 -194 95
-215 120 -7 8 -25 15 -41 15 -18 0 -32 7 -39 20 -6 11 -52 59 -101 107 -50 49
-100 100 -111 116 l-20 28 65 -36 c84 -46 211 -92 305 -110 41 -8 81 -20 89
-26 8 -7 37 -13 66 -14 29 -2 90 -16 137 -33 126 -46 259 -78 421 -102 79 -12
198 -33 264 -48 66 -14 138 -26 160 -26 35 -1 40 2 37 19 -5 27 -20 35 -63 35
-19 0 -81 14 -137 30 -56 17 -137 35 -179 40 -43 5 -102 19 -132 30 -30 12
-97 30 -150 41 -53 11 -136 30 -186 44 -49 13 -121 29 -160 36 -38 6 -106 27
-150 46 -45 20 -117 41 -164 49 -60 10 -91 20 -108 36 -33 31 -29 36 20 27 95
-18 168 -4 175 35 3 15 0 17 -14 11 -11 -4 -44 -10 -74 -13 l-54 -5 29 27 30
26 -26 -5 c-33 -8 -59 18 -33 33 9 5 26 7 38 4 21 -5 21 -5 2 16 l-19 22 50 0
c42 0 52 -4 61 -22 10 -21 11 -20 11 14 1 35 -1 38 -35 44 -19 3 -66 3 -105 0
-43 -5 -69 -4 -69 3 0 21 61 59 107 66 26 4 95 25 153 47 58 22 132 44 165 50
33 5 70 16 83 24 12 8 84 24 160 35 103 15 152 27 197 50 33 16 76 32 95 35
19 3 107 25 195 49 88 24 187 47 219 52 56 8 91 31 73 49 -11 11 -148 -15
-276 -51 -64 -19 -196 -48 -292 -65 -199 -35 -259 -50 -353 -85 -45 -17 -87
-25 -129 -25 -46 0 -76 -7 -117 -26 -30 -14 -90 -39 -133 -55 -44 -15 -113
-46 -154 -69 -41 -22 -77 -40 -79 -40 -2 0 2 13 11 29 8 17 57 67 109 112 52
45 100 92 107 105 7 14 21 24 34 24 12 0 62 23 111 51 113 65 550 287 632 322
49 20 63 30 60 44 -6 28 -45 18 -191 -48 -73 -33 -166 -74 -207 -90 -82 -33
-383 -192 -415 -219 -11 -10 -31 -21 -45 -25 -53 -15 -270 -249 -270 -290 0
-14 -4 -25 -9 -25 -10 0 -60 118 -92 218 -19 58 -29 77 -51 88 -18 9 -28 23
-28 37 0 12 -19 45 -41 72 -23 28 -62 80 -86 117 -25 36 -57 72 -71 78 -15 7
-65 57 -112 111 -97 113 -222 239 -239 239 -6 0 -11 -8 -11 -19z m-484 -326
c18 -13 18 -14 -4 -8 -12 3 -25 9 -28 14 -8 14 10 11 32 -6z m882 -90 c-3 -4
-16 9 -28 27 l-23 33 28 -27 c16 -15 26 -30 23 -33z m-413 -41 c38 -18 43 -23
20 -18 -43 8 -115 42 -90 43 11 0 43 -11 70 -25z m1365 -18 c0 -6 -87 -56 -97
-56 -4 0 15 14 42 30 53 31 55 32 55 26z m-1145 -76 c3 -6 3 -10 -2 -10 -11 1
-43 26 -43 34 0 9 37 -11 45 -24z m920 -50 c-9 -15 -45 -32 -45 -22 0 5 10 14
23 20 29 14 29 14 22 2z m-834 -22 c15 -13 101 -114 129 -153 25 -33 -108 85
-135 121 -14 18 -25 35 -25 38 0 10 15 7 31 -6z m306 -69 c6 -13 15 -37 18
-54 l7 -30 -19 30 c-32 52 -45 87 -31 83 7 -3 18 -15 25 -29z m404 12 c-6 -11
-22 -27 -35 -38 -13 -10 -53 -42 -88 -72 -56 -48 -52 -44 27 37 87 90 116 112
96 73z m726 -2 c-22 -13 -178 -41 -185 -34 -3 2 1 7 9 10 26 9 144 33 169 34
22 0 23 -1 7 -10z m-1461 -97 c22 -11 80 -50 129 -87 94 -70 120 -77 120 -32
l-1 27 26 -24 c14 -13 38 -32 54 -42 l29 -18 25 29 c17 20 27 26 30 17 2 -7
14 -25 27 -40 23 -26 23 -27 44 -8 12 11 21 27 21 36 0 9 7 25 15 36 14 18 14
17 3 -9 -10 -24 -9 -31 8 -47 18 -18 22 -18 48 -5 36 19 34 19 28 -10 -6 -33
14 -55 49 -55 32 0 37 -11 14 -30 -17 -14 -20 -46 -5 -55 21 -13 10 -35 -19
-35 -16 0 -35 -7 -42 -16 -11 -14 -11 -21 3 -45 10 -16 13 -29 8 -29 -5 0 -11
4 -14 9 -3 5 -19 14 -36 19 -23 9 -33 8 -45 -4 -22 -23 -2 -53 110 -163 52
-52 95 -99 95 -105 0 -20 -183 167 -224 230 -35 54 -59 57 -87 9 l-21 -35 -20
25 c-18 23 -21 24 -46 10 -15 -8 -43 -27 -62 -42 -19 -15 -29 -21 -22 -13 16
19 15 45 -2 59 -20 17 -49 1 -113 -64 -106 -108 -243 -138 -378 -86 -78 31
-189 142 -206 205 -5 23 -19 54 -30 69 -18 25 -19 31 -7 45 8 9 27 43 42 74
49 104 154 190 263 218 55 14 144 5 189 -18z m954 -23 c-47 -16 -109 -39 -137
-49 -29 -10 -53 -15 -53 -11 0 4 18 13 40 20 22 6 68 25 102 41 35 17 79 30
98 30 29 0 21 -5 -50 -31z m-89 -488 c37 -17 40 -20 18 -20 -26 -1 -148 36
-162 49 -15 14 101 -10 144 -29z m-741 -131 c-67 -84 -116 -133 -130 -128 -10
3 10 30 66 86 88 88 115 106 64 42z m1119 24 c29 -8 96 -24 149 -34 53 -10
115 -26 137 -34 l40 -16 -50 6 c-62 7 -261 58 -307 78 -44 19 -33 19 31 0z
m-919 -55 c-7 -16 -21 -34 -31 -40 -17 -9 -18 -7 -9 16 15 40 44 79 48 66 2
-7 -2 -25 -8 -42z m510 -74 c19 -14 31 -25 26 -25 -15 0 -66 31 -66 40 0 14 2
13 40 -15z m-900 -80 c-7 -8 -17 -15 -23 -15 -6 0 -2 7 9 15 25 19 30 19 14 0z
m1157 -49 c7 -1 29 -14 50 -29 59 -42 10 -34 -57 9 -32 22 -45 34 -30 30 14
-4 30 -8 37 -10z m-1396 -40 c-13 -15 -51 -28 -51 -17 0 6 34 23 59 30 2 1 -2
-5 -8 -13z"/>
<path d="M640 1161 c-5 -11 -10 -53 -10 -93 0 -74 9 -98 38 -98 23 0 82 31 77
40 -3 5 3 11 14 15 22 7 71 -10 71 -25 0 -5 11 -12 25 -16 14 -3 22 -10 19
-15 -3 -5 6 -4 20 2 28 13 36 35 36 106 0 104 -43 133 -108 73 -38 -34 -45
-36 -65 -15 -8 8 -17 11 -21 8 -3 -4 -6 -2 -6 4 0 11 -43 33 -65 33 -8 0 -19
-9 -25 -19z m89 -36 c24 -19 48 -35 52 -35 5 0 26 16 48 35 46 42 68 44 77 10
7 -28 1 -132 -8 -141 -7 -6 -52 17 -90 48 -26 20 -28 20 -50 4 -13 -9 -39 -28
-58 -42 l-35 -25 -6 23 c-9 30 -11 122 -3 142 9 24 24 20 73 -19z"/>
</g>
</svg>
