<?xml version="1.0" encoding="utf-8"?>
<!-- Generator: Adobe Illustrator 22.1.0, SVG Export Plug-In . SVG Version: 6.00 Build 0)  -->
<svg version="1.1" id="Layer_1" xmlns="http://www.w3.org/2000/svg" xmlns:xlink="http://www.w3.org/1999/xlink" x="0px" y="0px"
	 viewBox="0 0 515.9 637.8" style="enable-background:new 0 0 515.9 637.8;" xml:space="preserve">
<style type="text/css">
	.st0{fill:#163941;}
</style>
<g>
	<g>
		<path class="st0" d="M257.8,633.6c-2,0-3.6-0.3-5.3-1.1c-70-32.9-126.4-81.7-167.7-144.8c-32.9-50.2-56.3-109.3-69.5-176
			C-7,198.7,7.3,105,7.8,101.1c0.8-6.1,6.4-10.6,12.6-10.6c83.7,0,165.1-29.6,229.3-83.4c4.7-3.9,11.7-3.9,16.5,0
			c64.2,53.8,145.6,83.4,229.3,83.4c6.1,0,11.4,4.5,12.6,10.6c0.6,3.9,15.1,97.9-7.5,210.6c-13.1,66.7-36.5,125.8-69.5,176
			c-41.3,63-97.6,111.6-167.7,144.8C261.7,633.1,259.7,633.6,257.8,633.6z M31.5,115.3c-3.1,27.3-8.6,104.6,8.6,191.9
			C52.7,370.6,75,426.6,106,473.8c37.7,57.2,88.7,101.8,151.5,132.8c63-31,114.1-75.6,151.7-133.1c31.2-47.4,53.3-103.5,65.8-167.1
			c17.3-87,11.7-164,8.6-191.4c-82.3-2.5-161.8-31.5-226.2-82.6C193.6,84.1,113.8,113.1,31.5,115.3z"/>
	</g>
	<g>
		<path class="st0" d="M342.3,459H173.5c-30.7,0-55.8-25.1-55.8-55.8V261.5c0-30.7,25.1-55.8,55.8-55.8h168.8
			c30.7,0,55.8,25.1,55.8,55.8v141.7C398.1,434.2,373,459,342.3,459z M173.5,231.1c-16.7,0-30.4,13.7-30.4,30.4v141.7
			c0,16.7,13.7,30.4,30.4,30.4h168.8c16.7,0,30.4-13.7,30.4-30.4V261.5c0-16.7-13.7-30.4-30.4-30.4L173.5,231.1L173.5,231.1z"/>
	</g>
	<path class="st0" d="M331.7,231.1H184.1c-7,0-12.6-5.6-12.6-12.6v-56.1c0-30.7,25.1-55.8,55.8-55.8h61.4
		c30.7,0,55.8,25.1,55.8,55.8v55.8C344.5,225.2,338.7,231.1,331.7,231.1z M196.7,205.7h122.2v-43.5c0-16.7-13.7-30.4-30.4-30.4
		h-61.4c-16.7,0-30.4,13.7-30.4,30.4V205.7z"/>
	<g>
		<path class="st0" d="M294.6,387.6h-73.1c-20.4,0-37.1-16.7-37.1-37.1c0-11.4,5.6-22.3,14.2-29.3c0-0.3,0-0.6,0-0.6
			c0-17.9,14.5-32.6,32.6-32.6c4.5,0,8.9,0.8,12.8,2.8c7.8-8.4,19-13.7,31-13.7c23.2,0,42.1,19,42.1,42.1c0,0.6,0,1.4,0,2
			c8.9,7,14.5,17.9,14.5,29.6C331.7,371.1,314.9,387.6,294.6,387.6z M231,313.4c-3.9,0-7.3,3.3-7.3,7.3c0,0.8,0.3,1.7,0.6,2.5
			c2.5,6.4-0.8,13.9-7.3,16.5c-4.5,1.7-7.5,6.1-7.5,10.9c0,6.4,5.3,11.7,11.7,11.7h73.4c6.4,0,11.7-5.3,11.7-11.7
			c0-4.7-3.1-9.2-7.5-10.9c-6.1-2.2-9.5-9.2-7.8-15.6c0.6-1.7,0.8-3.1,0.8-4.7c0-9.2-7.5-16.7-16.7-16.7c-7,0-13.4,4.5-15.6,10.9
			c-1.7,4.5-5.6,7.5-10.3,8.4c-4.7,0.6-9.2-1.4-12-5.3C235.4,314.5,233.5,313.4,231,313.4z"/>
	</g>
</g>
</svg>
