<?xml version="1.0" encoding="utf-8"?>
<!-- Generator: Adobe Illustrator 22.1.0, SVG Export Plug-In . SVG Version: 6.00 Build 0)  -->
<svg version="1.1" id="Layer_1" xmlns="http://www.w3.org/2000/svg" xmlns:xlink="http://www.w3.org/1999/xlink" x="0px" y="0px"
	 viewBox="0 0 515.9 637.8" style="enable-background:new 0 0 515.9 637.8;" xml:space="preserve">
<style type="text/css">
	.st0{display:none;}
	.st1{fill:#163941;}
</style>
<g id="Layer_2_1_" class="st0">
</g>
<g>
	<g>
		<path class="st1" d="M230.6,499.5c-1.5-1-2.7-2.6-3.6-4.5c-0.8-1.9-1.3-4.2-1.3-6.8s0.5-4.8,1.3-6.8c0.8-1.9,2.1-3.4,3.6-4.4
			c1.5-1,3.2-1.5,5.2-1.5c1.9,0,3.7,0.5,5.2,1.5c1.5,1,2.7,2.4,3.6,4.4c0.8,1.9,1.3,4.2,1.3,6.8s-0.5,4.8-1.3,6.8
			c-0.8,1.9-2.1,3.4-3.6,4.5c-1.5,1.1-3.2,1.6-5.2,1.6C233.8,501.1,232,500.7,230.6,499.5z M232,481.3c-0.8,1.5-1.3,3.7-1.3,6.9
			c0,3.2,0.5,5.6,1.3,7.1c0.8,1.5,2.1,2.3,3.7,2.3c3.4,0,5-3.1,5-9.4c0-3.2-0.5-5.5-1.3-6.9c-0.8-1.5-2.1-2.3-3.7-2.3
			C234,479,232.8,479.8,232,481.3z"/>
		<path class="st1" d="M208.6,479v-2.7c0-0.2,0-0.3,0.2-0.3c0.2-0.2,0.2-0.2,0.5-0.2H222c0.3,0,0.5,0.2,0.5,0.5v2.7
			c0,0.3-0.2,0.5-0.5,0.5h-3.7c-0.2,0-0.3,0-0.3,0.2v15.7c0,0.2,0,0.3,0.2,0.3c0,0,0.2,0,0.3,0l3.6-1.1h0.2c0.3,0,0.5,0.2,0.5,0.6
			v1.9c0,0.2,0,0.3-0.2,0.5c0,0-0.2,0.2-0.3,0.3l-5.5,2.7c-0.3,0.2-0.5,0.2-0.6,0.3c-0.2,0-0.3,0.2-0.6,0.2h-1.9
			c-0.3,0-0.5-0.2-0.5-0.5v-20.3c0-0.2-0.2-0.3-0.3-0.3h-3.6C208.8,479.5,208.6,479.4,208.6,479z"/>
		<path class="st1" d="M190.6,499.5c-1.5-1-2.7-2.6-3.6-4.5c-0.8-1.9-1.3-4.2-1.3-6.8s0.5-4.8,1.3-6.8c0.8-1.9,2.1-3.4,3.6-4.4
			c1.5-1,3.2-1.5,5.2-1.5c1.9,0,3.7,0.5,5.2,1.5c1.5,1,2.7,2.4,3.6,4.4c0.8,1.9,1.3,4.2,1.3,6.8s-0.5,4.8-1.3,6.8
			c-0.8,1.9-2.1,3.4-3.6,4.5c-1.5,1.1-3.2,1.6-5.2,1.6C193.8,501.1,192,500.7,190.6,499.5z M192,481.3c-0.8,1.5-1.3,3.7-1.3,6.9
			c0,3.2,0.5,5.6,1.3,7.1c0.8,1.5,2.1,2.3,3.7,2.3c3.4,0,5-3.1,5-9.4c0-3.2-0.5-5.5-1.3-6.9s-2.1-2.3-3.7-2.3
			C193.9,479,192.8,479.8,192,481.3z"/>
		<path class="st1" d="M168.6,479v-2.7c0-0.2,0-0.3,0.2-0.3c0.2-0.2,0.2-0.2,0.5-0.2H182c0.3,0,0.5,0.2,0.5,0.5v2.7
			c0,0.3-0.2,0.5-0.5,0.5h-3.7c-0.2,0-0.3,0-0.3,0.2v15.7c0,0.2,0,0.3,0.2,0.3c0,0,0.2,0,0.3,0l3.6-1.1h0.2c0.3,0,0.5,0.2,0.5,0.6
			v1.9c0,0.2,0,0.3-0.2,0.5c0,0-0.2,0.2-0.3,0.3l-5.5,2.7c-0.3,0.2-0.5,0.2-0.6,0.3c-0.2,0-0.3,0.2-0.6,0.2h-1.9
			c-0.3,0-0.5-0.2-0.5-0.5v-20.3c0-0.2-0.2-0.3-0.3-0.3h-3.6C168.8,479.5,168.6,479.4,168.6,479z"/>
		<path class="st1" d="M150.4,499.5c-1.5-1-2.7-2.6-3.6-4.5c-0.8-1.9-1.3-4.2-1.3-6.8s0.5-4.8,1.3-6.8c0.8-1.9,2.1-3.4,3.6-4.4
			c1.5-1,3.2-1.5,5.2-1.5c1.9,0,3.7,0.5,5.2,1.5c1.5,1,2.7,2.4,3.6,4.4c0.8,1.9,1.3,4.2,1.3,6.8s-0.5,4.8-1.3,6.8
			c-0.8,1.9-2.1,3.4-3.6,4.5c-1.5,1.1-3.2,1.6-5.2,1.6C153.6,501.1,151.8,500.7,150.4,499.5z M151.8,481.3c-0.8,1.5-1.3,3.7-1.3,6.9
			c0,3.2,0.5,5.6,1.3,7.1c0.8,1.5,2.1,2.3,3.7,2.3c3.4,0,5-3.1,5-9.4c0-3.2-0.5-5.5-1.3-6.9c-0.8-1.5-2.1-2.3-3.7-2.3
			C153.9,479,152.6,479.8,151.8,481.3z"/>
		<path class="st1" d="M128.4,479v-2.7c0-0.2,0-0.3,0.2-0.3c0.2-0.2,0.2-0.2,0.5-0.2h12.8c0.3,0,0.5,0.2,0.5,0.5v2.7
			c0,0.3-0.2,0.5-0.5,0.5h-3.7c-0.2,0-0.3,0-0.3,0.2v15.7c0,0.2,0,0.3,0.2,0.3c0,0,0.2,0,0.3,0l3.6-1.1h0.2c0.3,0,0.5,0.2,0.5,0.6
			v1.9c0,0.2,0,0.3-0.2,0.5c0,0-0.2,0.2-0.3,0.3l-5.3,2.7c-0.3,0.2-0.5,0.2-0.6,0.3c-0.2,0-0.3,0.2-0.6,0.2h-1.9
			c-0.3,0-0.5-0.2-0.5-0.5v-20.3c0-0.2-0.2-0.3-0.3-0.3h-3.6C128.6,479.5,128.4,479.4,128.4,479z"/>
		<path class="st1" d="M110.3,499.5c-1.5-1-2.7-2.6-3.6-4.5c-0.8-1.9-1.3-4.2-1.3-6.8s0.5-4.8,1.3-6.8c0.8-1.9,2.1-3.4,3.6-4.4
			c1.5-1,3.2-1.5,5.2-1.5s3.7,0.5,5.2,1.5c1.5,1,2.7,2.4,3.6,4.4c0.8,1.9,1.3,4.2,1.3,6.8s-0.5,4.8-1.3,6.8
			c-0.8,1.9-2.1,3.4-3.6,4.5c-1.5,1.1-3.2,1.6-5.2,1.6S111.8,500.7,110.3,499.5z M111.8,481.3c-0.8,1.5-1.3,3.7-1.3,6.9
			c0,3.2,0.5,5.6,1.3,7.1c0.8,1.5,2.1,2.3,3.7,2.3c3.4,0,5-3.1,5-9.4c0-3.2-0.5-5.5-1.3-6.9s-2.1-2.3-3.7-2.3
			C113.9,479,112.6,479.8,111.8,481.3z"/>
		<path class="st1" d="M89.2,476l0.5-2.7c0-0.2,0.2-0.2,0.2-0.3c0.2-0.2,0.3-0.2,0.5,0l12.6,2.6c0.3,0,0.5,0.3,0.5,0.6l-0.5,2.7
			c0,0.3-0.3,0.5-0.6,0.3l-3.7-0.8c-0.2,0-0.3,0-0.3,0.2l-3.1,15.3c0,0.2,0,0.3,0,0.3s0.2,0.2,0.3,0.2l3.7-0.5h0.2
			c0.3,0,0.3,0.3,0.3,0.6l-0.3,1.9c0,0.2-0.2,0.3-0.2,0.3S99,497,98.9,497l-5.8,1.6c-0.3,0-0.5,0.2-0.6,0.2s-0.5,0-0.6,0l-1.9-0.3
			c-0.3,0-0.3-0.3-0.3-0.6l4-20c0-0.2,0-0.3-0.2-0.3l-3.4-0.6C89.2,476.5,89,476.3,89.2,476z"/>
		<path class="st1" d="M74,470.2l1-2.6c0-0.2,0.2-0.2,0.3-0.3c0.2,0,0.3,0,0.5,0l11.8,4.7c0.3,0.2,0.5,0.3,0.3,0.6l-1,2.6
			c-0.2,0.3-0.3,0.3-0.6,0.3l-3.6-1.5c-0.2,0-0.3,0-0.3,0l-5.8,14.5c0,0.2,0,0.3,0,0.3s0.2,0.2,0.3,0.2l3.7,0.2h0.2
			c0.3,0.2,0.3,0.3,0.2,0.6l-0.6,1.8c0,0.2-0.2,0.3-0.2,0.3s-0.2,0.2-0.5,0.2l-6,0.5c-0.3,0-0.5,0-0.6,0s-0.3,0-0.6-0.2l-1.9-0.8
			c-0.3-0.2-0.3-0.3-0.2-0.6l7.6-18.9c0-0.2,0-0.3-0.2-0.3l-3.2-1.3C74,470.6,74,470.5,74,470.2z"/>
		<path class="st1" d="M47.5,477.6c-0.6-1.8-0.8-3.6-0.3-5.6c0.3-2.1,1.3-4.2,2.7-6.3s3.1-3.7,4.8-4.8c1.8-1.1,3.6-1.6,5.5-1.6
			c1.8,0,3.6,0.6,5.2,1.6c1.6,1.1,2.7,2.4,3.4,4.2s0.8,3.6,0.5,5.6c-0.3,2.1-1.3,4.2-2.7,6.3c-1.5,2.1-3.1,3.9-5,4.8
			c-1.8,1.1-3.7,1.6-5.5,1.6s-3.6-0.5-5.2-1.6C49.3,480.6,48.2,479.2,47.5,477.6z M59.2,463.2c-1.5,0.6-3.2,2.4-5,5
			c-1.8,2.7-2.9,4.8-3.1,6.6c-0.2,1.8,0.5,3.1,1.8,4c2.7,1.9,6,0.3,9.5-5c1.8-2.6,2.7-4.7,2.9-6.5c0.2-1.6-0.5-2.9-1.8-3.9
			C62.1,462.6,60.6,462.6,59.2,463.2z"/>
		<path class="st1" d="M43.8,445.8l1.9-1.9c0.2-0.2,0.2-0.2,0.3-0.2s0.3,0,0.5,0.2l8.7,9.4c0.3,0.3,0.3,0.5,0,0.6l-2.1,1.9
			c-0.2,0.2-0.5,0.2-0.6,0L50,453c-0.2-0.2-0.3-0.2-0.3-0.2l-11.5,10.7c-0.2,0.2-0.2,0.2-0.2,0.3c0,0,0,0.2,0.2,0.3l3.2,1.8
			c0,0,0.2,0,0.2,0.2c0.2,0.2,0.2,0.5-0.2,0.6l-1.5,1.3c-0.2,0.2-0.3,0.2-0.3,0.2c-0.2,0-0.2,0-0.5-0.2l-5.6-2.1
			c-0.3-0.2-0.5-0.2-0.6-0.3c-0.2-0.2-0.3-0.2-0.5-0.3l-1.5-1.5c-0.2-0.2-0.2-0.5,0.2-0.6l14.8-13.9c0.2-0.2,0.2-0.3,0-0.5l-2.1-2.4
			C43.7,446.1,43.7,445.9,43.8,445.8z"/>
		<path class="st1" d="M16.9,441.3c0.2-1.8,0.8-3.6,2.1-5.3c1.3-1.8,3.1-3.2,5.2-4.5c2.3-1.3,4.4-2.1,6.5-2.3s3.9,0,5.6,0.8
			c1.8,0.8,2.9,1.9,3.9,3.7c1,1.8,1.5,3.4,1.3,5.2s-0.8,3.6-1.9,5.3s-2.9,3.2-5.2,4.5c-2.3,1.3-4.5,2.1-6.6,2.4
			c-2.1,0.2-4,0-5.6-0.8c-1.6-0.8-3.1-1.9-4-3.7C17,444.8,16.7,443,16.9,441.3z M33.3,433.2c-1.6,0-3.9,0.8-6.6,2.4
			s-4.7,3.2-5.5,4.7c-0.8,1.5-1,2.9,0,4.4c1.8,2.9,5.2,2.7,10.7-0.5c2.7-1.6,4.5-3.1,5.3-4.7c0.8-1.6,0.8-2.9,0-4.4
			C36.2,433.8,35,433.2,33.3,433.2z"/>
		<path class="st1" d="M7,415c0.6-1.8,1.8-3.2,3.4-4.7c1.6-1.3,3.7-2.4,6.3-3.1c2.4-0.6,4.8-1,6.9-0.6c2.1,0.3,3.9,1,5.2,2.3
			c1.5,1.1,2.4,2.7,2.9,4.5c0.5,1.9,0.5,3.7,0,5.5c-0.6,1.8-1.6,3.2-3.2,4.7c-1.6,1.3-3.7,2.4-6.1,3.1c-2.6,0.6-4.8,1-6.9,0.6
			c-2.1-0.3-3.9-1.1-5.3-2.3c-1.5-1.1-2.4-2.7-2.9-4.5C6.4,418.3,6.4,416.6,7,415z M24.9,411.2c-1.6-0.5-3.9-0.2-6.9,0.6
			s-5.3,1.9-6.5,3.1c-1.3,1.3-1.6,2.6-1.1,4.2c1,3.2,4.4,4,10.3,2.3c3.1-0.8,5.2-1.9,6.3-3.1c1.1-1.3,1.6-2.6,1.1-4.2
			C27.7,412.7,26.6,411.7,24.9,411.2z"/>
		<path class="st1" d="M24.6,388l2.7-0.2c0.2,0,0.3,0,0.3,0.2c0.2,0.2,0.2,0.2,0.2,0.5l0.6,12.8c0,0.3-0.2,0.5-0.5,0.5l-2.7,0.2
			c-0.3,0-0.5-0.2-0.5-0.5l-0.2-3.7c0-0.2-0.2-0.3-0.2-0.3l-15.7,0.8c-0.2,0-0.3,0-0.3,0.2c0,0,0,0.2,0,0.3l1.3,3.6v0.2
			c0,0.3-0.2,0.5-0.5,0.5L7.4,403c-0.2,0-0.3,0-0.5,0s-0.2-0.2-0.3-0.3l-3.1-5.3c-0.2-0.2-0.2-0.5-0.3-0.6c0-0.2-0.2-0.3-0.2-0.6
			l-0.2-1.9c0-0.3,0.2-0.5,0.5-0.5l20.3-1.1c0.2,0,0.3-0.2,0.3-0.3l-0.2-3.6C24.1,388.3,24.3,388.2,24.6,388z"/>
		<path class="st1" d="M6.7,367.2c1.3-1.3,2.9-2.3,5-2.7c2.1-0.5,4.4-0.5,6.9-0.2c2.6,0.5,4.7,1.3,6.5,2.4c1.8,1.1,3.1,2.6,3.7,4.2
			c0.8,1.6,1,3.4,0.6,5.3c-0.3,1.9-1.1,3.6-2.4,4.8c-1.3,1.3-2.9,2.3-4.8,2.7c-2.1,0.5-4.4,0.6-6.9,0.2c-2.6-0.5-4.8-1.3-6.5-2.4
			c-1.8-1.1-3.1-2.6-3.9-4.4c-0.8-1.6-1-3.4-0.6-5.3C4.6,370.1,5.4,368.5,6.7,367.2z M24.6,371.7c-1.3-1.1-3.6-1.9-6.6-2.4
			c-3.2-0.5-5.6-0.5-7.3,0c-1.6,0.6-2.6,1.6-2.9,3.2c-0.5,3.2,2.3,5.5,8.4,6.5c3.1,0.5,5.5,0.5,7.1-0.2c1.6-0.6,2.6-1.8,2.7-3.2
			C26.4,374.1,25.9,372.7,24.6,371.7z"/>
		<path class="st1" d="M34.1,350.4l2.6,1c0.2,0,0.2,0.2,0.3,0.3c0,0.2,0,0.3,0,0.5L32.2,364c-0.2,0.3-0.3,0.5-0.6,0.3l-2.6-1.1
			c-0.3-0.2-0.3-0.3-0.3-0.6l1.5-3.6c0-0.2,0-0.3,0-0.3l-14.5-6c-0.2,0-0.3,0-0.3,0s-0.2,0.2-0.2,0.3l-0.3,3.7v0.2
			c-0.2,0.3-0.3,0.3-0.6,0.2l-1.8-0.8c-0.2,0-0.3-0.2-0.3-0.2c0-0.2-0.2-0.2-0.2-0.5l-0.5-6c0-0.3,0-0.5,0-0.6s0-0.3,0.2-0.6
			l0.8-1.9c0.2-0.3,0.3-0.3,0.6-0.2l18.9,7.7c0.2,0,0.3,0,0.3-0.2l1.3-3.2C33.7,350.4,33.8,350.4,34.1,350.4z"/>
		<path class="st1" d="M42.7,336.8l2.3,1.5c0.2,0,0.2,0.2,0.2,0.3c0,0.2,0,0.3-0.2,0.5L38,349.9c-0.2,0.3-0.5,0.3-0.6,0.2l-2.4-1.5
			c-0.3-0.2-0.3-0.3-0.2-0.6l2.1-3.2c0.2-0.2,0.2-0.3,0-0.3L23.7,336c-0.2-0.2-0.2-0.2-0.3-0.2c-0.2,0-0.2,0.2-0.2,0.3l-1,3.7v0.2
			c-0.2,0.3-0.3,0.3-0.6,0l-1.6-1.1c-0.2-0.2-0.3-0.2-0.3-0.3s0-0.2,0-0.5l0.6-6c0-0.3,0.2-0.5,0.2-0.6c0-0.2,0.2-0.3,0.3-0.6
			l1.1-1.8c0.2-0.3,0.3-0.3,0.6,0l17.1,11c0.2,0.2,0.3,0,0.5-0.2l1.9-2.9C42.2,336.7,42.4,336.7,42.7,336.8z"/>
		<path class="st1" d="M40.3,309.4c1.8-0.3,3.7-0.2,5.6,0.6s3.9,2.1,5.8,3.9c1.8,1.8,3.1,3.7,3.9,5.6c0.8,1.9,1,3.9,0.6,5.6
			c-0.3,1.8-1.3,3.4-2.6,4.7c-1.5,1.5-2.9,2.3-4.7,2.6s-3.7,0.2-5.6-0.6s-3.9-2.1-5.6-3.9c-1.8-1.8-3.2-3.7-3.9-5.8
			c-0.8-1.9-1-3.9-0.6-5.6c0.3-1.8,1.1-3.4,2.6-4.8C36.9,310.5,38.5,309.7,40.3,309.4z M52.2,323.3c-0.5-1.6-1.8-3.6-4-5.8
			c-2.3-2.3-4.2-3.7-6-4.2c-1.6-0.5-3.1-0.2-4.2,1c-2.4,2.4-1.3,5.8,3.1,10.2c2.3,2.3,4.2,3.6,5.8,4c1.6,0.5,3.1,0,4.2-1.1
			C52.2,326.3,52.7,324.9,52.2,323.3z"/>
		<path class="st1" d="M72.2,311.7l1.5,2.3c0,0.2,0.2,0.2,0,0.3c0,0.2-0.2,0.3-0.3,0.3l-10.8,6.8c-0.3,0.2-0.5,0.2-0.6-0.2l-1.5-2.4
			c-0.2-0.3-0.2-0.5,0.2-0.6l3.2-1.9C64,316,64,316,64,315.9l-8.4-13.2c-0.2-0.2-0.2-0.2-0.2-0.2s-0.2,0-0.3,0.2l-2.4,2.9
			c0,0,0,0.2-0.2,0.2c-0.3,0.2-0.5,0-0.6-0.3l-1-1.6c-0.2-0.2-0.2-0.3-0.2-0.3c0-0.2,0-0.2,0.2-0.3l3.1-5.2c0.2-0.2,0.3-0.5,0.5-0.5
			c0.2-0.2,0.3-0.3,0.5-0.5l1.8-1.1c0.3-0.2,0.5-0.2,0.6,0.2l10.8,17.3c0.2,0.2,0.3,0.2,0.5,0.2l2.9-1.9
			C71.9,311.3,72.1,311.3,72.2,311.7z"/>
		<path class="st1" d="M63.5,289.7c1-1.6,2.3-2.9,4.2-3.9s4-1.6,6.6-1.9c2.6-0.2,4.8,0,6.8,0.6s3.6,1.8,4.7,3.1
			c1.1,1.5,1.8,3.1,1.9,5s-0.2,3.7-1.1,5.3c-0.8,1.6-2.3,2.9-4,3.9c-1.8,1-4,1.6-6.6,1.9c-2.6,0.2-5,0-6.9-0.6
			c-1.9-0.6-3.6-1.8-4.8-3.2c-1.1-1.5-1.8-3.1-2.1-5C62.4,293.1,62.7,291.3,63.5,289.7z M81.9,289.5c-1.5-0.6-3.9-1-6.9-0.6
			c-3.2,0.3-5.5,1-6.9,1.9c-1.5,1-2.1,2.3-1.9,3.9c0.3,3.4,3.6,4.7,9.8,4.2c3.1-0.3,5.3-1,6.8-1.9c1.5-1,1.9-2.3,1.8-3.9
			C84.3,291.5,83.5,290.2,81.9,289.5z"/>
		<path class="st1" d="M81.3,265.3H84c0.2,0,0.3,0,0.3,0.2c0.2,0.2,0.2,0.2,0.2,0.5v12.8c0,0.3-0.2,0.5-0.5,0.5h-2.7
			c-0.3,0-0.5-0.2-0.5-0.5V275c0-0.2,0-0.3-0.2-0.3H65c-0.2,0-0.3,0-0.3,0.2c0,0,0,0.2,0,0.3l1.1,3.6v0.2c0,0.3-0.2,0.5-0.6,0.5
			h-1.9c-0.2,0-0.3,0-0.5-0.2c0,0-0.2-0.2-0.3-0.3l-2.7-5.3c-0.2-0.3-0.2-0.5-0.3-0.6c0-0.2-0.2-0.3-0.2-0.6v-1.9
			c0-0.3,0.2-0.5,0.5-0.5H80c0.2,0,0.3-0.2,0.3-0.3V266C80.8,265.5,81,265.3,81.3,265.3z"/>
		<path class="st1" d="M65.6,242.7c1.5-1.1,3.2-1.9,5.3-2.3c2.1-0.3,4.4-0.2,6.9,0.6c2.6,0.6,4.5,1.8,6.1,3.1
			c1.6,1.3,2.7,2.9,3.2,4.5c0.6,1.8,0.6,3.6,0.2,5.5s-1.5,3.4-2.9,4.5c-1.5,1.1-3.1,1.9-5.2,2.3c-2.1,0.3-4.4,0.2-6.8-0.5
			c-2.6-0.6-4.7-1.8-6.3-3.1c-1.6-1.3-2.7-2.9-3.4-4.7c-0.6-1.8-0.6-3.6-0.2-5.3C63.2,245.5,64.2,243.9,65.6,242.7z M82.9,249
			c-1.1-1.1-3.2-2.3-6.3-3.1s-5.5-1.1-7.3-0.6c-1.6,0.5-2.7,1.5-3.2,2.9c-1,3.2,1.6,5.6,7.7,7.3c3.1,0.8,5.3,1.1,6.9,0.6
			c1.6-0.5,2.6-1.5,3.1-3.1C84.3,251.6,84,250.2,82.9,249z"/>
		<path class="st1" d="M95.3,229.5l2.4,1.5c0.2,0,0.2,0.2,0.2,0.3s0,0.3-0.2,0.5l-6.6,11c-0.2,0.3-0.5,0.3-0.6,0.2l-2.4-1.5
			c-0.3-0.2-0.3-0.3-0.2-0.6l1.9-3.2c0.2-0.2,0.2-0.3,0-0.3l-13.4-8.1c-0.2-0.2-0.2-0.2-0.3-0.2c0,0-0.2,0.2-0.2,0.3l-0.8,3.7v0.2
			c-0.2,0.3-0.3,0.3-0.6,0l-1.6-1c-0.2-0.2-0.3-0.2-0.3-0.3s0-0.2,0-0.5l0.5-6c0-0.3,0-0.5,0.2-0.6c0-0.2,0.2-0.3,0.3-0.6l1-1.8
			c0.2-0.3,0.3-0.3,0.6-0.2l17.4,10.7c0.2,0.2,0.3,0,0.5-0.2l1.8-2.9C94.8,229.3,95,229.3,95.3,229.5z"/>
		<path class="st1" d="M93.5,202.1c1.8-0.3,3.7,0,5.6,0.8c1.9,0.8,3.9,2.3,5.6,4c1.8,1.9,3.1,3.9,3.7,5.8c0.6,1.9,0.8,3.9,0.5,5.6
			c-0.5,1.8-1.3,3.4-2.7,4.7c-1.5,1.3-3.1,2.1-4.8,2.4c-1.8,0.3-3.7,0-5.6-0.8s-3.7-2.1-5.5-4c-1.8-1.9-3.1-3.9-3.7-6
			s-0.8-3.9-0.5-5.8c0.3-1.8,1.3-3.4,2.7-4.7C90.2,203,91.8,202.2,93.5,202.1z M105,216.4c-0.3-1.6-1.6-3.6-3.9-6s-4.2-3.9-5.8-4.4
			c-1.6-0.5-3.1-0.2-4.2,0.8c-2.4,2.3-1.5,5.6,2.7,10.3c2.1,2.3,4,3.7,5.6,4.2c1.6,0.5,3.1,0.2,4.2-1C105,219.3,105.5,218,105,216.4
			z"/>
		<path class="st1" d="M125.8,206.1l1.3,2.4c0,0.2,0,0.3,0,0.3c0,0.2-0.2,0.3-0.3,0.3l-11.3,5.8c-0.3,0.2-0.5,0.2-0.6-0.2l-1.3-2.4
			c-0.2-0.3,0-0.5,0.2-0.6l3.4-1.8c0.2-0.2,0.2-0.2,0.2-0.3l-7.3-13.9c0-0.2-0.2-0.2-0.2-0.2s-0.2,0-0.3,0.2l-2.6,2.7l-0.2,0.2
			c-0.3,0.2-0.5,0-0.6-0.3l-1-1.8c-0.2-0.2-0.2-0.3-0.2-0.5c0-0.2,0-0.2,0.2-0.3l3.6-4.8c0.2-0.2,0.3-0.3,0.5-0.5
			c0.2-0.2,0.3-0.3,0.5-0.3l1.8-1c0.3-0.2,0.5,0,0.6,0.3l9.4,18.1c0.2,0.2,0.2,0.2,0.5,0.2l3.1-1.6
			C125.5,205.8,125.7,205.8,125.8,206.1z"/>
		<path class="st1" d="M138.7,181.7c1.6,0.6,3.2,1.9,4.4,3.7c1.3,1.8,2.1,3.9,2.6,6.5c0.5,2.6,0.5,4.8,0.2,6.9
			c-0.5,2.1-1.3,3.7-2.6,5c-1.3,1.3-2.9,2.1-4.8,2.6c-1.9,0.3-3.7,0.3-5.3-0.5c-1.6-0.6-3.1-1.9-4.4-3.6c-1.3-1.6-2.1-3.9-2.6-6.3
			c-0.5-2.6-0.5-4.8-0.2-6.9c0.5-2.1,1.3-3.9,2.6-5.2c1.3-1.3,2.9-2.3,4.7-2.6C135.2,180.9,137,181.1,138.7,181.7z M141,200
			c0.5-1.6,0.5-3.9-0.2-7.1c-0.6-3.2-1.6-5.5-2.7-6.8c-1.1-1.3-2.4-1.8-4-1.5c-3.2,0.6-4.2,4-3.1,10.2c0.6,3.1,1.5,5.3,2.6,6.5
			c1.1,1.3,2.4,1.8,4,1.5C139.4,202.5,140.5,201.6,141,200z"/>
		<path class="st1" d="M164.1,202.1l-0.2,2.7c0,0.2,0,0.3-0.2,0.3c-0.2,0.2-0.3,0.2-0.5,0.2l-12.8-1c-0.3,0-0.5-0.2-0.5-0.5l0.2-2.7
			c0-0.3,0.2-0.5,0.5-0.5l3.7,0.3c0.2,0,0.3,0,0.3-0.2l1.1-15.7c0-0.2,0-0.3,0-0.3s-0.2,0-0.3,0l-3.7,1h-0.2c-0.3,0-0.5-0.2-0.3-0.6
			l0.2-1.9c0-0.2,0-0.3,0.2-0.5c0,0,0.2-0.2,0.3-0.2l5.6-2.3c0.3-0.2,0.5-0.2,0.6-0.2c0.2,0,0.3,0,0.6,0l1.9,0.2
			c0.3,0,0.5,0.2,0.3,0.6l-1.5,20.3c0,0.2,0,0.3,0.3,0.3l3.6,0.3C163.9,201.6,164.1,201.7,164.1,202.1z"/>
		<path class="st1" d="M187.8,188.2c1.1,1.5,1.6,3.2,1.8,5.5c0.2,2.1-0.2,4.4-1.1,6.9c-0.8,2.4-2.1,4.4-3.6,6
			c-1.5,1.5-3.1,2.4-4.8,2.9c-1.8,0.5-3.6,0.3-5.3-0.3c-1.8-0.6-3.2-1.8-4.4-3.2c-1.1-1.5-1.8-3.2-1.9-5.3c-0.2-2.1,0.2-4.4,1.1-6.8
			c0.8-2.4,2.1-4.5,3.6-6c1.5-1.6,3.1-2.6,4.8-3.1s3.6-0.3,5.3,0.3C185.2,185.6,186.7,186.6,187.8,188.2z M180.2,204.8
			c1.3-1.1,2.4-3.1,3.6-6.1c1.1-3.1,1.5-5.5,1.3-7.1c-0.3-1.8-1.1-2.9-2.7-3.4c-3.1-1.1-5.8,1.3-7.9,7.1c-1.1,2.9-1.5,5.3-1.1,6.9
			c0.3,1.6,1.3,2.7,2.7,3.4C177.5,206.3,178.9,205.9,180.2,204.8z"/>
		<path class="st1" d="M198.8,218.7l-1.6,2.3c0,0.2-0.2,0.2-0.3,0.2s-0.3,0-0.5-0.2l-10.3-7.4c-0.3-0.2-0.3-0.5-0.2-0.6l1.6-2.3
			c0.2-0.3,0.5-0.3,0.6-0.2l3.1,2.3c0.2,0.2,0.3,0.2,0.3,0l9-12.8c0.2-0.2,0.2-0.2,0.2-0.3l-0.2-0.2l-3.6-1.1c0,0-0.2,0-0.2-0.2
			c-0.2-0.2-0.3-0.5,0-0.6l1.1-1.6c0.2-0.2,0.2-0.3,0.3-0.3s0.2,0,0.5,0l6,1c0.3,0,0.5,0.2,0.6,0.2c0.2,0,0.3,0.2,0.5,0.3l1.6,1.1
			c0.2,0.2,0.3,0.3,0,0.6l-11.8,16.6c-0.2,0.2-0.2,0.3,0,0.5l2.9,2.1C198.9,218.2,198.9,218.4,198.8,218.7z"/>
		<path class="st1" d="M223.8,213c1,1.5,1.6,3.4,1.6,5.5c0.2,2.1-0.3,4.4-1.3,6.8c-1,2.4-2.1,4.4-3.7,5.8c-1.5,1.5-3.1,2.4-4.8,2.7
			c-1.8,0.3-3.6,0.2-5.3-0.5c-1.8-0.6-3.2-1.8-4.2-3.4c-1-1.5-1.6-3.2-1.8-5.3c-0.2-2.1,0.3-4.4,1.3-6.8c1-2.4,2.3-4.4,3.7-6
			c1.5-1.5,3.2-2.4,5-2.9c1.8-0.5,3.6-0.3,5.3,0.5C221.4,210.5,222.8,211.6,223.8,213z M215.9,229.5c1.3-1,2.6-3.1,3.7-6
			c1.1-3.1,1.6-5.3,1.5-7.1c-0.2-1.8-1.1-2.9-2.6-3.4c-3.1-1.3-5.8,1.1-8.1,6.9c-1.1,2.9-1.6,5.2-1.3,6.9c0.3,1.6,1.1,2.7,2.7,3.4
			C213.1,230.8,214.6,230.6,215.9,229.5z"/>
		<path class="st1" d="M237,203.8l2.4,1.5c0.2,0,0.2,0.2,0.2,0.3s0,0.3-0.2,0.5l-6.6,10.8c-0.2,0.3-0.5,0.3-0.6,0.2l-2.4-1.5
			c-0.3-0.2-0.3-0.3-0.2-0.6l1.9-3.2c0.2-0.2,0.2-0.3,0-0.3l-13.2-8.2c-0.2-0.2-0.2-0.2-0.3-0.2c0,0-0.2,0.2-0.2,0.3l-0.8,3.7v0.2
			c-0.2,0.3-0.3,0.3-0.6,0l-1.6-1c-0.2-0.2-0.3-0.2-0.3-0.3c0-0.2,0-0.2,0-0.5l0.5-6c0-0.3,0-0.5,0.2-0.6c0-0.2,0.2-0.3,0.3-0.6
			l1.1-1.8c0.2-0.3,0.3-0.3,0.6-0.2l17.3,10.7c0.2,0.2,0.3,0,0.5-0.2l1.8-2.9C236.6,203.7,236.7,203.7,237,203.8z"/>
		<path class="st1" d="M233.3,176.7c1.8-0.5,3.7-0.3,5.6,0.3c2.1,0.6,4,1.9,6,3.6c1.9,1.6,3.4,3.6,4.2,5.5c0.8,1.9,1.1,3.7,1,5.6
			c-0.3,1.8-1,3.4-2.3,4.8s-2.9,2.4-4.7,2.9c-1.8,0.5-3.7,0.3-5.6-0.3c-1.9-0.6-3.9-1.8-5.8-3.6c-1.9-1.8-3.4-3.6-4.2-5.5
			c-0.8-1.9-1.1-3.9-1-5.6c0.2-1.8,1-3.4,2.3-4.8C229.9,178,231.4,177,233.3,176.7z M245.9,190c-0.5-1.6-1.9-3.4-4.4-5.5
			c-2.4-2.1-4.5-3.4-6.1-3.9c-1.6-0.3-3.1,0-4.2,1.3c-2.3,2.4-1,5.8,3.7,10c2.4,2.1,4.4,3.4,6,3.7s3.1-0.2,4.2-1.3
			C246.1,193,246.4,191.6,245.9,190z"/>
		<path class="st1" d="M265,176.6l1.6,2.1c0.2,0.2,0.2,0.2,0.2,0.3c0,0.2-0.2,0.3-0.3,0.3l-10.2,7.7c-0.3,0.2-0.5,0.2-0.6,0
			l-1.8-2.3c-0.2-0.3-0.2-0.5,0.2-0.6l2.9-2.3c0.2-0.2,0.2-0.2,0.2-0.3l-9.5-12.4c-0.2-0.2-0.2-0.2-0.3-0.2c0,0-0.2,0-0.3,0.2
			l-2.1,3.1c0,0,0,0.2-0.2,0.2c-0.2,0.2-0.5,0.2-0.6-0.2l-1.1-1.6c-0.2-0.2-0.2-0.3-0.2-0.3c0-0.2,0-0.2,0.2-0.5l2.6-5.5
			c0.2-0.2,0.3-0.5,0.3-0.6c0.2-0.2,0.3-0.3,0.5-0.5l1.6-1.3c0.2-0.2,0.5-0.2,0.6,0.2l12.4,16.1c0.2,0.2,0.3,0.2,0.5,0l2.7-2.1
			C264.5,176.2,264.8,176.2,265,176.6z"/>
		<path class="st1" d="M271.1,149.8c1.8,0.2,3.6,1,5.2,2.4c1.6,1.3,3.1,3.2,4.4,5.5c1.1,2.3,1.8,4.5,1.9,6.6
			c0.2,2.1-0.3,3.9-1.1,5.5c-0.8,1.6-2.1,2.9-3.9,3.7c-1.8,1-3.6,1.3-5.3,1c-1.8-0.2-3.6-1-5.2-2.3s-3.1-3.1-4.2-5.3
			c-1.1-2.3-1.9-4.5-1.9-6.6c-0.2-2.1,0.3-4,1.1-5.6c0.8-1.6,2.1-2.9,3.9-3.7C267.4,149.9,269.2,149.6,271.1,149.8z M278.2,166.7
			c0-1.6-0.6-3.9-2.1-6.8s-2.9-4.8-4.4-5.8c-1.5-1-2.9-1.1-4.4-0.3c-2.9,1.6-3.1,5.2-0.2,10.7c1.5,2.7,2.9,4.7,4.4,5.5
			c1.5,1,2.9,1,4.4,0.2C277.4,169.6,278.2,168.3,278.2,166.7z"/>
		<path class="st1" d="M296.8,140.9c1.8,0.6,3.2,1.8,4.7,3.4c1.3,1.6,2.4,3.7,3.1,6.3c0.6,2.6,0.8,4.8,0.5,6.9
			c-0.3,2.1-1.1,3.9-2.3,5.2c-1.1,1.5-2.7,2.3-4.7,2.9c-1.9,0.5-3.7,0.5-5.5-0.2s-3.2-1.6-4.5-3.2c-1.3-1.6-2.3-3.7-3.1-6.1
			c-0.6-2.6-0.8-4.8-0.5-6.9c0.3-2.1,1.1-3.9,2.3-5.3c1.1-1.5,2.7-2.4,4.5-2.9C293.4,140.2,295.1,140.2,296.8,140.9z M300.3,159
			c0.5-1.6,0.2-3.9-0.6-6.9s-1.9-5.3-3.1-6.6c-1.1-1.3-2.6-1.6-4.2-1.3c-3.2,0.8-4,4.4-2.4,10.3c0.8,3.1,1.8,5.2,3.1,6.3
			c1.1,1.1,2.6,1.6,4.2,1.1C298.9,161.5,299.8,160.6,300.3,159z"/>
		<path class="st1" d="M323.5,158l0.2,2.7c0,0.2,0,0.3-0.2,0.3c-0.2,0.2-0.2,0.2-0.5,0.2l-12.8,1.1c-0.3,0-0.5-0.2-0.6-0.5l-0.2-2.7
			c0-0.3,0.2-0.5,0.5-0.5l3.7-0.3c0.2,0,0.3-0.2,0.3-0.2l-1.3-15.5c0-0.2,0-0.3-0.2-0.3c0,0-0.2,0-0.3,0l-3.4,1.5h-0.2
			c-0.3,0-0.5-0.2-0.5-0.5l-0.2-1.9c0-0.2,0-0.3,0-0.5s0.2-0.2,0.3-0.3l5.2-3.2c0.2-0.2,0.5-0.2,0.6-0.3c0.2,0,0.3-0.2,0.6-0.2
			l1.9-0.2c0.3,0,0.5,0.2,0.5,0.5l1.8,20.3c0,0.2,0.2,0.3,0.3,0.3l3.6-0.3C323.2,157.5,323.5,157.7,323.5,158z"/>
		<path class="st1" d="M343.2,138.8c1.5,1.1,2.4,2.7,3.1,4.8c0.6,2.1,0.8,4.4,0.6,6.9c-0.3,2.6-1,4.8-1.9,6.6c-1,1.8-2.4,3.2-3.9,4
			c-1.6,0.8-3.4,1.1-5.3,1c-1.9-0.2-3.6-0.8-5-2.1c-1.5-1.1-2.4-2.7-3.1-4.7c-0.6-1.9-0.8-4.2-0.6-6.8c0.3-2.6,1-4.8,1.9-6.6
			c1.1-1.8,2.4-3.2,4-4.2c1.6-1,3.4-1.3,5.3-1.1C340.2,137,341.8,137.7,343.2,138.8z M340,156.9c1-1.3,1.6-3.6,1.9-6.8
			c0.3-3.2,0.2-5.6-0.5-7.3c-0.6-1.6-1.8-2.4-3.6-2.6c-3.4-0.3-5.3,2.6-5.8,8.9c-0.3,3.1-0.2,5.5,0.6,6.9c0.6,1.5,1.9,2.4,3.6,2.6
			C337.8,158.8,339,158.3,340,156.9z"/>
		<path class="st1" d="M362.1,164.3l-0.8,2.6c0,0.2-0.2,0.2-0.2,0.3c-0.2,0-0.3,0.2-0.5,0l-12.3-3.6c-0.3-0.2-0.5-0.3-0.3-0.6
			l0.8-2.7c0.2-0.3,0.3-0.5,0.6-0.3l3.6,1c0.2,0,0.3,0,0.3-0.2l4.4-15c0-0.2,0-0.3,0-0.3s-0.2-0.2-0.3-0.2l-3.7,0.2h-0.2
			c-0.3,0-0.3-0.3-0.3-0.6l0.5-1.9c0-0.2,0.2-0.3,0.2-0.3s0.2-0.2,0.5-0.2l6-1.1c0.3,0,0.5,0,0.6,0c0.2,0,0.5,0,0.6,0.2l1.9,0.5
			c0.3,0,0.3,0.3,0.3,0.6l-5.6,19.5c0,0.2,0,0.3,0.2,0.3l3.4,1C362,163.8,362.1,164,362.1,164.3z"/>
		<path class="st1" d="M387.3,153.3c1,1.6,1.3,3.6,1.1,5.6c-0.2,2.1-0.8,4.4-1.9,6.6c-1.1,2.3-2.6,4.2-4.2,5.5
			c-1.6,1.3-3.4,2.1-5.2,2.4c-1.8,0.2-3.6,0-5.3-1c-1.8-0.8-3.1-2.1-4-3.7s-1.3-3.4-1.3-5.5s0.6-4.4,1.8-6.6
			c1.1-2.4,2.6-4.2,4.2-5.5c1.6-1.3,3.4-2.1,5.2-2.4s3.6,0,5.3,0.8C385,150.6,386.3,151.9,387.3,153.3z M377.8,169.1
			c1.5-1,2.7-2.7,4.2-5.6c1.5-2.9,2.1-5.2,2.1-6.9c-0.2-1.8-0.8-2.9-2.3-3.7c-3.1-1.5-5.8,0.6-8.7,6.1c-1.5,2.9-2.1,5-1.9,6.8
			c0.2,1.6,1,2.9,2.4,3.6C375,170.1,376.5,170.1,377.8,169.1z"/>
		<path class="st1" d="M395.9,184l-1.6,2.3c-0.2,0.2-0.2,0.2-0.3,0.2c-0.2,0-0.3,0-0.5-0.2l-10.2-7.6c-0.3-0.2-0.3-0.5-0.2-0.6
			l1.6-2.3c0.2-0.3,0.5-0.3,0.6,0l3.1,2.3c0.2,0.2,0.3,0.2,0.3,0l9.4-12.4c0.2-0.2,0.2-0.2,0.2-0.3l-0.2-0.2l-3.6-1.1
			c0,0-0.2,0-0.2-0.2c-0.2-0.2-0.2-0.5,0-0.6l1.1-1.6c0.2-0.2,0.2-0.3,0.3-0.3c0.2,0,0.2,0,0.5,0l6,1.1c0.3,0,0.5,0.2,0.6,0.2
			c0.2,0,0.3,0.2,0.5,0.3l1.6,1.1c0.2,0.2,0.2,0.5,0,0.6l-12.3,16.3c-0.2,0.2-0.2,0.3,0,0.5l2.7,2.1C396,183.5,396,183.7,395.9,184z
			"/>
		<path class="st1" d="M407.3,195.3l-1.9,1.9c-0.2,0.2-0.2,0.2-0.3,0.2c-0.2,0-0.3,0-0.5-0.2l-8.9-9c-0.3-0.3-0.3-0.5,0-0.6l1.9-1.9
			c0.2-0.2,0.5-0.2,0.6,0l2.6,2.7c0.2,0.2,0.3,0.2,0.3,0l11.1-11c0.2-0.2,0.2-0.2,0.2-0.3c0,0,0-0.2-0.2-0.3l-3.4-1.8
			c0,0-0.2,0-0.2-0.2c-0.2-0.2-0.2-0.5,0.2-0.6l1.5-1.3c0.2-0.2,0.3-0.2,0.3-0.2c0.2,0,0.2,0,0.5,0l5.8,1.9c0.3,0.2,0.5,0.2,0.6,0.3
			c0.2,0.2,0.3,0.2,0.5,0.3l1.5,1.5c0.2,0.2,0.2,0.5,0,0.6l-14.5,14.4c-0.2,0.2-0.2,0.3,0,0.5l2.4,2.4
			C407.5,194.8,407.6,195.1,407.3,195.3z"/>
		<path class="st1" d="M434.6,198.2c0,1.8-0.6,3.7-1.8,5.5c-1.1,1.8-2.7,3.4-4.8,5c-2.1,1.5-4.2,2.4-6.3,2.7
			c-2.1,0.3-3.9,0.2-5.6-0.5c-1.8-0.6-3.1-1.8-4.2-3.4c-1.1-1.6-1.6-3.4-1.6-5.2c0-1.8,0.5-3.6,1.6-5.5c1.1-1.8,2.7-3.4,4.8-4.8
			c2.1-1.5,4.4-2.4,6.5-2.7c2.1-0.3,4-0.2,5.8,0.5c1.8,0.6,3.1,1.8,4.2,3.4C434.1,194.6,434.6,196.3,434.6,198.2z M418.8,207.2
			c1.6-0.2,3.9-1.1,6.5-2.9c2.7-1.8,4.4-3.6,5.2-5c0.8-1.6,0.6-3.1-0.2-4.4c-1.9-2.7-5.5-2.4-10.7,1.1c-2.6,1.8-4.2,3.4-5,5
			c-0.6,1.5-0.6,2.9,0.3,4.4C415.7,206.7,417.2,207.4,418.8,207.2z"/>
		<path class="st1" d="M446.7,222.7c-0.3,1.8-1.3,3.4-2.7,5c-1.5,1.6-3.4,2.7-5.8,3.7c-2.4,1-4.7,1.5-6.8,1.5
			c-2.1,0-3.9-0.6-5.5-1.6c-1.6-1-2.6-2.4-3.4-4.2s-1-3.6-0.5-5.3c0.3-1.8,1.3-3.4,2.7-5c1.5-1.5,3.4-2.7,5.8-3.7
			c2.4-1,4.7-1.5,6.8-1.5s4,0.6,5.5,1.6c1.6,1,2.7,2.4,3.4,4.2C446.9,219.2,447,220.9,446.7,222.7z M429.1,228.2
			c1.6,0.2,3.9-0.3,6.9-1.5c3.1-1.3,5-2.6,6.1-3.9c1.1-1.3,1.3-2.7,0.6-4.4c-1.3-3.1-4.8-3.4-10.7-1.1c-2.9,1.1-4.8,2.4-6,3.9
			c-1,1.3-1.3,2.7-0.6,4.2C426.4,227.2,427.5,228,429.1,228.2z"/>
		<path class="st1" d="M432.8,251.3l-2.7,0.5c-0.2,0-0.3,0-0.3,0c-0.2,0-0.2-0.2-0.2-0.3L427,239c0-0.3,0-0.5,0.3-0.6l2.7-0.6
			c0.3,0,0.5,0,0.5,0.3l0.8,3.7c0,0.2,0.2,0.3,0.3,0.3l15.3-3.2c0.2,0,0.3-0.2,0.3-0.2s0-0.2,0-0.3l-1.9-3.2V235
			c0-0.3,0.2-0.5,0.5-0.5l1.9-0.3c0.2,0,0.3,0,0.5,0c0.2,0,0.2,0.2,0.3,0.3l3.7,4.7c0.2,0.2,0.3,0.5,0.3,0.6
			c0.2,0.2,0.2,0.3,0.2,0.6l0.5,1.9c0,0.3-0.2,0.5-0.5,0.5l-19.9,4.2c-0.2,0-0.3,0.2-0.2,0.3l0.6,3.4
			C433.3,251,433.1,251.1,432.8,251.3z"/>
		<path class="st1" d="M454.3,268.4c-1,1.6-2.4,2.7-4.4,3.7c-1.9,1-4.2,1.5-6.8,1.5c-2.6,0-4.8-0.3-6.8-1.1s-3.4-1.9-4.5-3.4
			c-1.1-1.5-1.6-3.2-1.6-5.2c0-1.9,0.5-3.7,1.5-5.2c1-1.6,2.4-2.7,4.4-3.7c1.9-1,4.2-1.5,6.8-1.5c2.6,0,4.8,0.3,6.9,1.1
			c1.9,0.8,3.6,1.9,4.5,3.6c1.1,1.5,1.6,3.2,1.8,5.2C455.7,265.2,455.3,266.9,454.3,268.4z M435.9,267.4c1.5,0.8,3.7,1.1,6.9,1.1
			s5.6-0.5,7.1-1.5c1.5-0.8,2.3-2.1,2.3-3.7c0-3.4-3.2-5-9.5-4.8c-3.2,0-5.5,0.5-6.9,1.5c-1.5,0.8-2.1,2.1-2.1,3.7
			C433.6,265.5,434.4,266.6,435.9,267.4z"/>
		<path class="st1" d="M431.2,290.4l-2.7-0.5c-0.2,0-0.2-0.2-0.3-0.2c-0.2-0.2-0.2-0.3-0.2-0.5l1.9-12.6c0-0.3,0.2-0.5,0.5-0.5
			l2.7,0.5c0.3,0,0.5,0.2,0.3,0.6l-0.6,3.7c0,0.2,0,0.3,0.2,0.3l15.5,2.4c0.2,0,0.3,0,0.3,0s0.2-0.2,0.2-0.3l-0.6-3.7v-0.2
			c0-0.3,0.3-0.3,0.6-0.3l1.9,0.3c0.2,0,0.3,0,0.3,0.2c0,0,0.2,0.2,0.2,0.3l1.8,5.8c0,0.3,0.2,0.5,0.2,0.6s0,0.5,0,0.6l-0.3,1.9
			c0,0.3-0.3,0.5-0.6,0.3l-20.2-3.2c-0.2,0-0.3,0-0.3,0.3l-0.5,3.4C431.7,290.2,431.5,290.4,431.2,290.4z"/>
		<path class="st1" d="M455.7,295c0.8,1.6,1.3,3.6,1.1,5.6c-0.2,2.1-0.8,4.4-1.9,6.6c-1.1,2.3-2.6,4.2-4.2,5.5
			c-1.6,1.3-3.4,2.1-5.2,2.3c-1.8,0.2-3.6-0.2-5.3-1c-1.8-0.8-3.1-2.1-3.9-3.7s-1.3-3.4-1.1-5.5c0.2-2.1,0.8-4.4,1.9-6.6
			c1.1-2.3,2.6-4.2,4.2-5.5c1.6-1.3,3.4-2.1,5.2-2.4c1.8-0.3,3.6,0,5.3,1C453.6,292.1,454.9,293.4,455.7,295z M446.2,310.7
			c1.5-1,2.7-2.7,4.2-5.6c1.5-2.9,2.1-5.2,2.1-6.9s-0.8-2.9-2.3-3.7c-2.9-1.5-5.8,0.5-8.7,6.1c-1.5,2.7-2.1,5-1.9,6.8
			c0.2,1.6,0.8,2.9,2.3,3.7C443.3,311.7,444.8,311.7,446.2,310.7z"/>
		<path class="st1" d="M463.8,326l-1.8,2.1c-0.2,0.2-0.2,0.2-0.3,0.2c-0.2,0-0.3,0-0.5-0.2l-9.8-8.1c-0.3-0.2-0.3-0.5-0.2-0.6
			l1.8-2.1c0.2-0.3,0.5-0.3,0.6,0l2.9,2.4c0.2,0.2,0.3,0.2,0.3,0l9.8-12.1c0.2-0.2,0.2-0.2,0.2-0.3l-0.2-0.2l-3.6-1.3
			c0,0-0.2,0-0.2-0.2c-0.2-0.2-0.2-0.5,0-0.6l1.3-1.5c0.2-0.2,0.2-0.3,0.3-0.3c0.2,0,0.2,0,0.5,0l6,1.3c0.3,0,0.5,0.2,0.6,0.2
			c0.2,0,0.3,0.2,0.5,0.3l1.6,1.3c0.2,0.2,0.2,0.5,0,0.6l-12.9,15.8c-0.2,0.2-0.2,0.3,0,0.5l2.7,2.3
			C464,325.5,464.1,325.7,463.8,326z"/>
		<path class="st1" d="M491.3,326.7c0.2,1.8-0.3,3.7-1.3,5.6c-1,1.9-2.6,3.7-4.5,5.3c-2.1,1.6-4,2.7-6.1,3.2s-3.9,0.5-5.6,0
			c-1.8-0.5-3.2-1.6-4.4-3.1c-1.1-1.5-1.9-3.2-2.1-5s0.3-3.7,1.3-5.5c1-1.8,2.4-3.6,4.5-5.2c2.1-1.6,4.2-2.7,6.1-3.2
			c2.1-0.5,4-0.5,5.8,0s3.2,1.6,4.5,3.1C490.6,323.3,491.3,324.9,491.3,326.7z M476.1,337c1.6-0.3,3.7-1.3,6.1-3.4
			c2.6-1.9,4.2-3.9,4.8-5.5c0.6-1.6,0.5-3.1-0.5-4.4c-2.1-2.6-5.5-1.9-10.5,1.9c-2.4,1.9-4,3.7-4.7,5.3s-0.5,3.1,0.6,4.4
			C473.2,336.7,474.5,337.2,476.1,337z"/>
		<path class="st1" d="M504.6,351.4c-0.3,1.8-1.3,3.6-2.7,5c-1.5,1.6-3.4,2.9-5.8,3.9c-2.4,1-4.7,1.6-6.8,1.6s-3.9-0.5-5.5-1.5
			c-1.6-1-2.7-2.4-3.6-4.2s-1-3.6-0.6-5.3c0.3-1.8,1.1-3.4,2.6-5c1.5-1.6,3.2-2.9,5.6-3.9c2.4-1.1,4.7-1.6,6.8-1.6s4,0.5,5.5,1.5
			c1.6,1,2.7,2.3,3.6,4C504.8,347.8,505,349.6,504.6,351.4z M487.4,357.5c1.6,0.2,3.9-0.3,6.8-1.6s5-2.6,6-4c1-1.5,1.3-2.7,0.6-4.4
			c-1.3-3.1-4.8-3.4-10.7-0.8c-2.9,1.3-4.8,2.6-5.8,4c-1,1.3-1.1,2.7-0.5,4.4C484.5,356.4,485.6,357.3,487.4,357.5z"/>
		<path class="st1" d="M491.1,380.4l-2.7,0.5c-0.2,0-0.3,0-0.3,0c-0.2,0-0.2-0.2-0.2-0.3l-2.4-12.6c0-0.3,0-0.5,0.3-0.6l2.7-0.5
			c0.3,0,0.5,0,0.5,0.5l0.6,3.7c0,0.2,0.2,0.3,0.3,0.3l15.3-3.1c0.2,0,0.3,0,0.3-0.2c0,0,0-0.2,0-0.3l-1.8-3.2v-0.2
			c0-0.3,0.2-0.5,0.5-0.5l1.9-0.3c0.2,0,0.3,0,0.5,0s0.2,0.2,0.3,0.3l3.7,4.8c0.2,0.2,0.3,0.5,0.3,0.6c0.2,0.2,0.2,0.3,0.2,0.6
			l0.3,1.9c0,0.3-0.2,0.5-0.5,0.5l-20,3.9c-0.2,0-0.3,0.2-0.2,0.3l0.6,3.4C491.4,380.1,491.3,380.4,491.1,380.4z"/>
		<path class="st1" d="M511.6,398.5c-1.1,1.5-2.6,2.6-4.5,3.4c-1.9,0.8-4.2,1.1-6.9,1.1c-2.6,0-4.8-0.5-6.8-1.5
			c-1.9-1-3.4-2.1-4.4-3.7c-1-1.6-1.5-3.2-1.5-5.2c0-1.9,0.6-3.7,1.6-5.2c1.1-1.5,2.6-2.6,4.5-3.4c1.9-0.8,4.2-1.1,6.8-1.1
			c2.6,0,4.8,0.6,6.8,1.5c1.9,1,3.4,2.1,4.4,3.7c1,1.6,1.5,3.2,1.5,5.2C513.2,395.4,512.7,397,511.6,398.5z M493.3,396.7
			c1.5,0.8,3.7,1.3,6.9,1.5c3.2,0.2,5.6-0.3,7.1-1.1s2.3-1.9,2.4-3.7c0.2-3.4-3.1-5.2-9.2-5.3c-3.2-0.2-5.5,0.3-6.9,1.1
			c-1.5,0.8-2.3,2.1-2.3,3.7C491.3,394.5,491.9,395.7,493.3,396.7z"/>
		<path class="st1" d="M486.9,419l-2.7-0.6c-0.2,0-0.2-0.2-0.3-0.2c0-0.2-0.2-0.3,0-0.5l3.1-12.4c0.2-0.3,0.3-0.5,0.6-0.5l2.7,0.6
			c0.3,0,0.5,0.3,0.3,0.6l-1,3.7c0,0.2,0,0.3,0.2,0.3L505,414c0.2,0,0.3,0,0.3,0s0.2-0.2,0.2-0.3l-0.3-3.7v-0.2
			c0-0.3,0.3-0.3,0.6-0.3l1.9,0.5c0.2,0,0.3,0.2,0.3,0.2s0.2,0.2,0.2,0.5l1.3,6c0,0.3,0,0.5,0.2,0.6c0,0.2,0,0.5,0,0.6l-0.5,1.9
			c0,0.3-0.3,0.3-0.6,0.3l-19.7-5c-0.2,0-0.3,0-0.3,0.2l-0.8,3.4C487.4,419,487.2,419,486.9,419z"/>
		<path class="st1" d="M497.7,444.3c-1.6,0.8-3.6,1.3-5.6,1.1c-2.1-0.2-4.4-0.8-6.6-1.9c-2.3-1.1-4.2-2.6-5.5-4.2
			c-1.3-1.6-2.1-3.4-2.3-5.2c-0.2-1.8,0.2-3.6,1-5.3s2.1-3.1,3.7-3.9c1.6-0.8,3.4-1.3,5.5-1.1c2.1,0.2,4.4,0.6,6.6,1.9
			c2.3,1.1,4.2,2.6,5.5,4.2c1.3,1.6,2.1,3.4,2.4,5.2c0.3,1.8,0,3.6-1,5.3C500.6,442.1,499.3,443.4,497.7,444.3z M482.1,434.6
			c1,1.5,2.7,2.7,5.6,4.2c2.9,1.5,5.2,2.1,6.9,2.1c1.8,0,2.9-0.8,3.7-2.3c1.5-2.9-0.5-5.8-6.1-8.7c-2.7-1.5-5-2.1-6.8-1.9
			c-1.6,0.2-2.9,0.8-3.7,2.3C481.1,431.9,481.1,433.4,482.1,434.6z"/>
		<path class="st1" d="M466.6,452.1l-2.1-1.8c-0.2-0.2-0.2-0.2-0.2-0.3c0-0.2,0-0.3,0.2-0.5l8.1-9.8c0.2-0.3,0.5-0.3,0.6-0.2
			l2.1,1.8c0.2,0.2,0.3,0.5,0,0.6l-2.4,2.9c-0.2,0.2-0.2,0.3,0,0.3L485,455c0.2,0.2,0.2,0.2,0.3,0.2l0.2-0.2l1.3-3.6
			c0,0,0-0.2,0.2-0.2c0.2-0.2,0.5-0.2,0.6,0l1.5,1.3c0.2,0.2,0.3,0.2,0.3,0.3c0,0.2,0,0.2,0,0.5l-1.3,6c0,0.3-0.2,0.5-0.2,0.6
			c0,0.2-0.2,0.3-0.3,0.5l-1.3,1.6c-0.2,0.2-0.5,0.2-0.6,0l-15.7-12.9c-0.2-0.2-0.3-0.2-0.5,0l-2.3,2.7
			C467,452.2,466.9,452.4,466.6,452.1z"/>
		<path class="st1" d="M465.7,479.5c-1.8,0.2-3.7-0.3-5.6-1.3s-3.6-2.6-5.2-4.5c-1.6-1.9-2.6-4-3.2-6.1s-0.5-3.9,0-5.6
			s1.6-3.2,3.1-4.4s3.2-1.9,5-1.9c1.8-0.2,3.7,0.3,5.5,1.3c1.8,1,3.6,2.4,5.2,4.5c1.6,2.1,2.7,4.2,3.2,6.1c0.5,2.1,0.5,4,0,5.8
			c-0.5,1.8-1.6,3.2-3.1,4.4C469.3,478.9,467.5,479.5,465.7,479.5z M455.6,464.3c0.2,1.6,1.3,3.7,3.2,6.3s3.9,4.2,5.3,4.8
			c1.5,0.6,3.1,0.5,4.4-0.5c2.6-2.1,1.9-5.5-1.8-10.5c-1.9-2.4-3.7-4-5.3-4.7c-1.6-0.6-3.1-0.5-4.4,0.6
			C455.9,461.3,455.4,462.6,455.6,464.3z"/>
		<path class="st1" d="M434.3,473.5l-1.1-2.4c0-0.2,0-0.3,0-0.3c0-0.2,0.2-0.2,0.3-0.3l11.5-5.5c0.3-0.2,0.5-0.2,0.6,0.2l1.1,2.6
			c0.2,0.3,0,0.5-0.3,0.6L443,470c-0.2,0.2-0.3,0.2-0.2,0.3l6.8,14c0,0.2,0.2,0.2,0.2,0.2s0.2,0,0.3-0.2l2.7-2.6c0,0,0.2,0,0.2-0.2
			c0.3-0.2,0.5,0,0.6,0.3l0.8,1.8c0.2,0.2,0.2,0.3,0.2,0.5c0,0.2-0.2,0.2-0.2,0.3l-3.7,4.8c-0.2,0.2-0.3,0.3-0.5,0.5
			c-0.2,0.2-0.3,0.3-0.5,0.3L448,491c-0.3,0.2-0.5,0-0.6-0.3l-8.7-18.4c-0.2-0.2-0.2-0.2-0.5-0.2l-3.2,1.5
			C434.6,473.9,434.4,473.9,434.3,473.5z"/>
		<path class="st1" d="M421.7,498.1c-1.8-0.6-3.2-1.9-4.5-3.6c-1.3-1.8-2.3-3.9-2.7-6.5c-0.6-2.6-0.6-4.8-0.3-6.9
			c0.5-2.1,1.3-3.7,2.4-5c1.3-1.3,2.9-2.3,4.7-2.6c1.9-0.5,3.7-0.3,5.3,0.3c1.8,0.6,3.2,1.8,4.5,3.6c1.3,1.6,2.1,3.7,2.7,6.3
			s0.6,4.8,0.2,6.9c-0.5,2.1-1.3,3.9-2.6,5.2c-1.3,1.3-2.7,2.3-4.7,2.7C425.2,498.9,423.5,498.7,421.7,498.1z M419.1,479.8
			c-0.5,1.6-0.3,3.9,0.3,7.1s1.6,5.3,2.7,6.6c1.1,1.3,2.6,1.8,4.2,1.5c3.2-0.8,4.2-4.2,2.7-10.3c-0.6-3.1-1.6-5.2-2.7-6.5
			c-1.1-1.3-2.6-1.6-4.2-1.3C420.6,477.3,419.6,478.2,419.1,479.8z"/>
		<path class="st1" d="M394.2,499.5c-1.5-1-2.7-2.6-3.6-4.5c-0.8-1.9-1.3-4.2-1.3-6.8s0.5-4.8,1.3-6.8c0.8-1.9,2.1-3.4,3.6-4.4
			c1.5-1,3.2-1.5,5.2-1.5c1.9,0,3.7,0.5,5.2,1.5c1.5,1,2.7,2.4,3.6,4.4c0.8,1.9,1.3,4.2,1.3,6.8s-0.5,4.8-1.3,6.8
			c-0.8,1.9-2.1,3.4-3.6,4.5c-1.5,1.1-3.2,1.6-5.2,1.6C397.5,501.1,395.9,500.7,394.2,499.5z M395.7,481.3c-0.8,1.5-1.3,3.7-1.3,6.9
			c0,3.2,0.5,5.6,1.3,7.1c0.8,1.5,2.1,2.3,3.7,2.3c3.4,0,5-3.1,5-9.4c0-3.2-0.5-5.5-1.3-6.9s-2.1-2.3-3.7-2.3
			C397.8,479,396.5,479.8,395.7,481.3z"/>
		<path class="st1" d="M370.8,499.5c-1.5-1-2.7-2.6-3.6-4.5c-0.8-1.9-1.3-4.2-1.3-6.8s0.5-4.8,1.3-6.8c0.8-1.9,2.1-3.4,3.6-4.4
			c1.5-1,3.2-1.5,5.2-1.5c1.9,0,3.7,0.5,5.2,1.5c1.5,1,2.7,2.4,3.6,4.4c0.8,1.9,1.3,4.2,1.3,6.8s-0.5,4.8-1.3,6.8
			c-0.8,1.9-2.1,3.4-3.6,4.5c-1.5,1.1-3.2,1.6-5.2,1.6C374.1,501.1,372.3,500.7,370.8,499.5z M372.3,481.3c-0.8,1.5-1.3,3.7-1.3,6.9
			c0,3.2,0.5,5.6,1.3,7.1c0.8,1.5,2.1,2.3,3.7,2.3c3.4,0,5-3.1,5-9.4c0-3.2-0.5-5.5-1.3-6.9s-2.1-2.3-3.7-2.3
			C374.2,479,373.1,479.8,372.3,481.3z"/>
		<path class="st1" d="M347.3,499.5c-1.5-1-2.7-2.6-3.6-4.5c-0.8-1.9-1.3-4.2-1.3-6.8s0.5-4.8,1.3-6.8c0.8-1.9,2.1-3.4,3.6-4.4
			c1.5-1,3.2-1.5,5.2-1.5s3.7,0.5,5.2,1.5c1.5,1,2.7,2.4,3.6,4.4c0.8,1.9,1.3,4.2,1.3,6.8s-0.5,4.8-1.3,6.8
			c-0.8,1.9-2.1,3.4-3.6,4.5c-1.5,1.1-3.2,1.6-5.2,1.6S348.7,500.7,347.3,499.5z M348.7,481.3c-0.8,1.5-1.3,3.7-1.3,6.9
			c0,3.2,0.5,5.6,1.3,7.1c0.8,1.5,2.1,2.3,3.7,2.3c3.4,0,5-3.1,5-9.4c0-3.2-0.5-5.5-1.3-6.9c-0.8-1.5-2.1-2.3-3.7-2.3
			C350.8,479,349.5,479.8,348.7,481.3z"/>
		<path class="st1" d="M325.3,479v-2.7c0-0.2,0-0.3,0.2-0.3c0.2-0.2,0.2-0.2,0.5-0.2h12.8c0.3,0,0.5,0.2,0.5,0.5v2.7
			c0,0.3-0.2,0.5-0.5,0.5H335c-0.2,0-0.3,0-0.3,0.2v15.7c0,0.2,0,0.3,0.2,0.3c0,0,0.2,0,0.3,0l3.6-1.1h0.2c0.3,0,0.5,0.2,0.5,0.6
			v1.9c0,0.2,0,0.3-0.2,0.5c0,0-0.2,0.2-0.3,0.3l-5.5,2.7c-0.3,0.2-0.5,0.2-0.6,0.3c-0.2,0-0.3,0.2-0.6,0.2h-1.9
			c-0.3,0-0.5-0.2-0.5-0.5v-20.3c0-0.2-0.2-0.3-0.3-0.3h-3.6C325.5,479.5,325.3,479.4,325.3,479z"/>
		<path class="st1" d="M308.7,479v-2.7c0-0.2,0-0.3,0.2-0.3c0.2-0.2,0.2-0.2,0.5-0.2h12.8c0.3,0,0.5,0.2,0.5,0.5v2.7
			c0,0.3-0.2,0.5-0.5,0.5h-3.7c-0.2,0-0.3,0-0.3,0.2v15.7c0,0.2,0,0.3,0.2,0.3c0,0,0.2,0,0.3,0l3.6-1.1h0.2c0.3,0,0.5,0.2,0.5,0.6
			v1.9c0,0.2,0,0.3-0.2,0.5c0,0-0.2,0.2-0.3,0.3l-5.5,2.7c-0.3,0.2-0.5,0.2-0.6,0.3c-0.2,0-0.3,0.2-0.6,0.2h-1.9
			c-0.3,0-0.5-0.2-0.5-0.5v-20.3c0-0.2-0.2-0.3-0.3-0.3h-3.6C308.9,479.5,308.7,479.4,308.7,479z"/>
		<path class="st1" d="M292.2,479v-2.7c0-0.2,0-0.3,0.2-0.3c0.2-0.2,0.2-0.2,0.5-0.2h12.8c0.3,0,0.5,0.2,0.5,0.5v2.7
			c0,0.3-0.2,0.5-0.5,0.5h-3.7c-0.2,0-0.3,0-0.3,0.2v15.7c0,0.2,0,0.3,0.2,0.3c0,0,0.2,0,0.3,0l3.6-1.1h0.2c0.3,0,0.5,0.2,0.5,0.6
			v1.9c0,0.2,0,0.3-0.2,0.5c0,0-0.2,0.2-0.3,0.3l-5.5,2.7c-0.3,0.2-0.5,0.2-0.6,0.3c-0.2,0-0.3,0.2-0.6,0.2h-1.9
			c-0.3,0-0.5-0.2-0.5-0.5v-20.3c0-0.2-0.2-0.3-0.3-0.3h-3.6C292.4,479.5,292.2,479.4,292.2,479z"/>
		<path class="st1" d="M274,499.5c-1.5-1-2.7-2.6-3.6-4.5c-0.8-1.9-1.3-4.2-1.3-6.8s0.5-4.8,1.3-6.8c0.8-1.9,2.1-3.4,3.6-4.4
			c1.5-1,3.2-1.5,5.2-1.5s3.7,0.5,5.2,1.5c1.5,1,2.7,2.4,3.6,4.4c0.8,1.9,1.3,4.2,1.3,6.8s-0.5,4.8-1.3,6.8
			c-0.8,1.9-2.1,3.4-3.6,4.5c-1.5,1.1-3.2,1.6-5.2,1.6S275.6,500.7,274,499.5z M275.5,481.3c-0.8,1.5-1.3,3.7-1.3,6.9
			c0,3.2,0.5,5.6,1.3,7.1c0.8,1.5,2.1,2.3,3.7,2.3c3.4,0,5-3.1,5-9.4c0-3.2-0.5-5.5-1.3-6.9c-0.8-1.5-2.1-2.3-3.7-2.3
			S276.3,479.8,275.5,481.3z"/>
		<path class="st1" d="M252,479v-2.7c0-0.2,0-0.3,0.2-0.3c0.2-0.2,0.2-0.2,0.5-0.2h12.8c0.3,0,0.5,0.2,0.5,0.5v2.7
			c0,0.3-0.2,0.5-0.5,0.5h-3.7c-0.2,0-0.3,0-0.3,0.2v15.7c0,0.2,0,0.3,0.2,0.3c0,0,0.2,0,0.3,0l3.6-1.1h0.2c0.3,0,0.5,0.2,0.5,0.6
			v1.9c0,0.2,0,0.3-0.2,0.5c0,0-0.2,0.2-0.3,0.3l-5.5,2.7c-0.3,0.2-0.5,0.2-0.6,0.3c-0.2,0-0.3,0.2-0.6,0.2h-1.9
			c-0.3,0-0.5-0.2-0.5-0.5v-20.3c0-0.2-0.2-0.3-0.3-0.3h-3.6C252.4,479.5,252,479.4,252,479z"/>
	</g>
</g>
</svg>
