<?xml version="1.0" encoding="utf-8"?>
<!-- Generator: Adobe Illustrator 22.1.0, SVG Export Plug-In . SVG Version: 6.00 Build 0)  -->
<svg version="1.1" id="Layer_1" xmlns="http://www.w3.org/2000/svg" xmlns:xlink="http://www.w3.org/1999/xlink" x="0px" y="0px"
	 viewBox="0 0 515.9 637.8" style="enable-background:new 0 0 515.9 637.8;" xml:space="preserve">
<style type="text/css">
	.st0{fill:#163941;}
	.st1{fill:#9AC3CD;}
</style>
<g>
	<path class="st0" d="M199.1,571.9c-6.2,0-11.1-4.9-11.1-11.1V391.3c0-6.2,4.9-11.1,11.1-11.1c6.2,0,11.1,4.9,11.1,11.1v169.5
		C210.4,567,205.5,571.9,199.1,571.9z"/>
	<g>
		<rect x="170.4" y="535.8" class="st1" width="108.4" height="51"/>
		<path class="st0" d="M278.7,598.1H170.4c-6.2,0-11.1-4.9-11.1-11.1v-51c0-6.2,4.9-11.1,11.1-11.1h108.4c6.2,0,11.1,4.9,11.1,11.1
			v51C290.1,592.9,284.9,598.1,278.7,598.1z M181.5,575.6h85.9v-28.5h-85.9V575.6z"/>
	</g>
	<g>
		<path class="st0" d="M403.9,402.4H111.7c-60.1,0-108.9-48.7-108.9-108.9c0-41.1,23.8-78.9,59.9-97.2C61,189.1,60,181.4,60,174
			c0-50,40.6-90.8,90.8-90.8c23.3,0,45.3,8.9,61.9,24.5c22-41.3,65.6-68,113.6-68c71,0,128.7,57.7,128.7,128.7c0,9.4-1,18.6-3,27.5
			c36.9,18.1,61.1,56.2,61.1,98C513.1,353.7,464.3,402.4,403.9,402.4z M150.6,105.7c-37.6,0-68.3,30.7-68.3,68.3
			c0,8.4,1.5,16.6,4.5,24.5c2.2,5.7-0.7,12.4-6.4,14.6c-32.9,12.9-55.2,45.3-55.2,80.7c0,47.8,38.8,86.4,86.4,86.4h292.2
			c47.8,0,86.4-38.8,86.4-86.4c0-35.9-22.5-68.3-55.9-80.9c-5.4-2-8.4-8.2-6.9-13.9c3-9.9,4.5-20.3,4.5-30.7
			c0-58.4-47.5-106.2-106.2-106.2c-44.5,0-84.6,28.2-99.7,70c-1.5,4-4.9,6.7-9.2,7.4c-4.2,0.5-8.2-1.2-10.6-4.7
			C193.6,116.6,172.8,105.7,150.6,105.7z"/>
	</g>
	<path class="st0" d="M162.4,495.5H93.6c-6.2,0-11.1-4.9-11.1-11.1s4.9-11.1,11.1-11.1h57.4l-0.5-81.9c0-6.2,4.9-11.4,11.1-11.4l0,0
		c6.2,0,11.1,4.9,11.1,11.1l0.5,93c0,3-1.2,5.9-3.2,7.9C168.6,494.5,165.4,495.5,162.4,495.5z"/>
	<path class="st0" d="M378,535.8h-68.8c-6.2,0-11.1-4.9-11.1-11.1V391.3c0-6.2,4.9-11.1,11.1-11.1s11.1,4.9,11.1,11.1v122.2h57.4
		c6.2,0,11.1,4.9,11.1,11.1C389.3,530.8,384.2,535.8,378,535.8z"/>
	<path class="st0" d="M419.3,452.9h-68.8c-6.2,0-11.1-4.9-11.1-11.1v-50.5c0-6.2,4.9-11.1,11.1-11.1s11.1,4.9,11.1,11.1v39.1H419
		c6.2,0,11.1,4.9,11.1,11.1C430.2,447.7,425.7,452.9,419.3,452.9z"/>
	<circle class="st0" cx="199.1" cy="560.8" r="9.7"/>
	<g>
		<rect x="14.2" y="459.6" class="st1" width="108.4" height="51"/>
		<path class="st0" d="M122.8,521.7H14.5c-6.2,0-11.1-4.9-11.1-11.1v-51c0-6.2,4.9-11.1,11.1-11.1h108.4c6.2,0,11.1,4.9,11.1,11.1
			v51C134,516.7,129,521.7,122.8,521.7z M25.4,499.2h85.9v-28.5H25.4V499.2z"/>
	</g>
	<circle class="st0" cx="94.1" cy="484.3" r="9.7"/>
	<g>
		<rect x="349.3" y="499.7" class="st1" width="108.4" height="51"/>
		<path class="st0" d="M457.9,562H349.5c-6.2,0-11.1-4.9-11.1-11.1v-51c0-6.2,4.9-11.1,11.1-11.1h108.4c6.2,0,11.1,4.9,11.1,11.1v51
			C469,556.8,464.3,562,457.9,562z M360.4,539.5h85.9V511h-85.9V539.5z"/>
	</g>
	<circle class="st0" cx="378" cy="524.7" r="9.7"/>
	<g>
		<rect x="390.6" y="416.5" class="st1" width="108.4" height="51"/>
		<path class="st0" d="M499,478.9H390.6c-6.2,0-11.1-4.9-11.1-11.1v-51c0-6.2,4.9-11.1,11.1-11.1H499c6.2,0,11.1,4.9,11.1,11.1v51
			C510.6,473.9,505.2,478.9,499,478.9z M401.7,456.4h85.9v-28.5h-85.9L401.7,456.4L401.7,456.4z"/>
	</g>
	<circle class="st0" cx="419.3" cy="441.5" r="9.7"/>
</g>
</svg>
