<?xml version="1.0" encoding="utf-8"?>
<!-- Generator: Adobe Illustrator 22.1.0, SVG Export Plug-In . SVG Version: 6.00 Build 0)  -->
<svg version="1.1" id="Layer_1" xmlns="http://www.w3.org/2000/svg" xmlns:xlink="http://www.w3.org/1999/xlink" x="0px" y="0px"
	 viewBox="0 0 425.2 425.2" style="enable-background:new 0 0 425.2 425.2;" xml:space="preserve">
<style type="text/css">
	.st0{fill:#67A6B3;}
	.st1{display:none;}
	.st2{fill:#163941;}
</style>
<rect class="st0" width="425.2" height="425.2"/>
<g id="Layer_2_1_" class="st1">
</g>
<path class="st2" d="M212,198.2c-42.7,0-77.3-34.7-77.3-77.3s34.6-77.3,77.3-77.3s77.3,34.7,77.3,77.3S254.6,198.2,212,198.2z"/>
<path class="st2" d="M324.5,381H99.4c-20.2,0-36.6-16.4-36.6-36.6v-25.9c0-18.5,17-38.4,46.6-54.4C139.2,247.8,175.7,239,212,239
	s72.8,8.9,102.6,25.1c29.7,16.1,46.6,35.9,46.6,54.4v25.9C361.1,364.6,344.7,381,324.5,381z"/>
</svg>
