<?xml version="1.0" encoding="utf-8"?>
<!-- Generator: Adobe Illustrator 22.1.0, SVG Export Plug-In . SVG Version: 6.00 Build 0)  -->
<svg version="1.1" id="Layer_1" xmlns="http://www.w3.org/2000/svg" xmlns:xlink="http://www.w3.org/1999/xlink" x="0px" y="0px"
	 viewBox="0 0 515.9 413.9" style="enable-background:new 0 0 515.9 413.9;" xml:space="preserve">
<style type="text/css">
	.st0{display:none;}
	.st1{fill:#163941;}
</style>
<g id="Layer_2_1_" class="st0">
</g>
<path class="st1" d="M181.4,190c-50.5,0-91.5-41.1-91.5-91.5S130.9,7,181.4,7c50.5,0,91.5,41.1,91.5,91.5S231.8,190,181.4,190z
	 M181.4,37c-33.9,0-61.5,27.6-61.5,61.5s27.6,61.5,61.5,61.5s61.5-27.6,61.5-61.5S215.3,37,181.4,37z"/>
<path class="st1" d="M314.6,406.3H48.1c-23.9,0-43.3-19.4-43.3-43.3v-30.7c0-21.9,20.1-45.4,55.2-64.4
	c35.2-19.2,78.4-29.7,121.4-29.7c43,0,86.2,10.5,121.4,29.7c35.1,19,55.2,42.5,55.2,64.4V363C357.9,386.9,338.5,406.3,314.6,406.3z
	 M181.4,268.1c-37.6,0-76.6,9.5-107.1,26.1c-28.8,15.6-39.5,31.7-39.5,38.1V363c0,7.4,6,13.3,13.3,13.3h266.5
	c7.4,0,13.3-6,13.3-13.3v-30.7c0-6.4-10.7-22.4-39.5-38.1C258,277.6,218.9,268.1,181.4,268.1z"/>
<path class="st1" d="M334.4,190c-11.8,0-23.4-2.3-34.3-6.7c-4-1.6-7.1-4.9-8.5-9s-1-8.6,1.2-12.4c11-19.2,16.8-41.2,16.8-63.5
	s-5.8-44.3-16.8-63.5c-2.1-3.8-2.6-8.3-1.2-12.4s4.5-7.4,8.5-9C311,9.2,322.6,7,334.4,7C384.9,7,426,48,426,98.5
	S384.9,190,334.4,190z M327.3,159.6c2.4,0.3,4.8,0.4,7.2,0.4c33.9,0,61.5-27.6,61.5-61.5S368.4,37,334.4,37c-2.4,0-4.8,0.1-7.2,0.4
	c8.1,19.3,12.3,40.1,12.3,61.1S335.3,140.4,327.3,159.6z"/>
<path class="st1" d="M468.1,406.3h-10.8c-23.9,0-43.3-19.4-43.3-43.3v-25.4c0-8.5-6.7-20.1-18.2-31.8c-13.8-13.9-33.4-27.4-56.9-39
	c-6.4-3.1-9.7-10.3-7.9-17.2c1.8-6.9,8.1-11.6,15.2-11.3c40.9,1.7,81.4,12.9,114,31.5c32.7,18.7,51.5,41.4,51.5,62.4V363
	C511.5,386.9,492,406.3,468.1,406.3z M414.1,281.8c19.2,18.5,29.9,37.9,29.9,55.8V363c0,7.4,6,13.3,13.3,13.3h10.8
	c7.4,0,13.3-6,13.3-13.3v-30.7c0-1.3-0.6-6.2-8-14.5c-6.6-7.5-16.4-15-28.4-21.8C438.1,291.9,427.6,286.6,414.1,281.8z"/>
</svg>
